<svg width="468" height="403" viewBox="0 0 468 403" fill="none" xmlns="http://www.w3.org/2000/svg">
<path d="M105.207 370.622C185.773 413.622 316.399 413.622 396.966 370.622C477.532 327.623 477.544 257.886 396.966 214.887C316.388 171.888 185.773 171.876 105.207 214.887C24.6402 257.898 24.6402 327.612 105.207 370.622Z" fill="#EBEBEB"/>
<path d="M420.663 263.933L408.911 257.1C408.911 257.1 406.03 231.922 407.943 212.427C410.642 185.017 428.338 152.073 449.439 159.794C470.541 167.515 439.749 195.494 432.916 218.724C426.084 241.955 420.663 263.933 420.663 263.933Z" fill="#BA68C8"/>
<path opacity="0.1" d="M420.663 263.933L408.911 257.1C408.911 257.1 406.03 231.922 407.943 212.427C410.642 185.017 428.338 152.073 449.439 159.794C470.541 167.515 439.749 195.494 432.916 218.724C426.084 241.955 420.663 263.933 420.663 263.933Z" fill="black"/>
<path d="M414.549 260.847C414.439 260.848 414.332 260.809 414.248 260.738C414.165 260.667 414.11 260.568 414.093 260.459C410.096 229.713 421.039 183.241 443.131 165.613C443.177 165.576 443.229 165.549 443.285 165.532C443.341 165.516 443.4 165.51 443.459 165.517C443.517 165.523 443.573 165.541 443.624 165.569C443.676 165.597 443.721 165.635 443.757 165.681C443.832 165.775 443.867 165.895 443.855 166.014C443.842 166.134 443.782 166.243 443.689 166.319C421.837 183.765 411.03 229.873 414.993 260.334C415.009 260.453 414.977 260.574 414.905 260.67C414.832 260.766 414.725 260.83 414.605 260.847H414.549Z" fill="white"/>
<path d="M426.938 268.795L418.58 263.956C418.58 263.956 417.156 246.681 425.629 225.694C432.996 207.474 451.296 192.26 460.497 195.448C469.698 198.637 469.471 205.162 464.984 212.006C460.497 218.85 433.201 235.168 426.938 268.795Z" fill="#BA68C8"/>
<path d="M421.757 269.239C421.697 269.236 421.639 269.222 421.586 269.196C421.532 269.17 421.484 269.134 421.445 269.089C421.406 269.045 421.376 268.993 421.357 268.936C421.338 268.88 421.331 268.82 421.335 268.761C424.091 225.762 445.841 204.615 458.914 201.393C459.032 201.365 459.156 201.383 459.26 201.445C459.364 201.507 459.44 201.606 459.472 201.723C459.5 201.839 459.481 201.961 459.419 202.064C459.357 202.166 459.258 202.24 459.142 202.269C445.374 205.686 424.831 228.574 422.258 268.818C422.253 268.879 422.237 268.938 422.209 268.993C422.182 269.047 422.143 269.095 422.097 269.135C422.05 269.174 421.996 269.204 421.937 269.221C421.879 269.239 421.817 269.245 421.757 269.239Z" fill="white"/>
<path d="M82.1817 267.281C82.1817 267.281 83.7418 242.035 69.0747 224.726C54.4076 207.417 35.3107 207.485 28.9907 210.708C22.6706 213.931 18.4231 223.143 29.2981 229.736C40.1732 236.33 63.3012 249.528 67.1502 261.303L82.1817 267.281Z" fill="#BA68C8"/>
<path opacity="0.1" d="M82.1817 267.281C82.1817 267.281 83.7418 242.035 69.0747 224.726C54.4076 207.417 35.3107 207.485 28.9907 210.708C22.6706 213.931 18.4231 223.143 29.2981 229.736C40.1732 236.33 63.3012 249.528 67.1502 261.303L82.1817 267.281Z" fill="black"/>
<path d="M75.2808 260.961C75.1398 260.959 75.0044 260.906 74.8996 260.811C74.7949 260.717 74.728 260.588 74.7114 260.448C71.6937 232.515 43.7716 217.039 32.646 215.285C32.5712 215.274 32.4994 215.248 32.4346 215.209C32.3698 215.17 32.3133 215.119 32.2684 215.058C32.2234 214.997 32.1909 214.928 32.1727 214.855C32.1544 214.782 32.1508 214.705 32.162 214.63C32.1732 214.556 32.1991 214.484 32.238 214.419C32.277 214.354 32.3284 214.298 32.3892 214.253C32.45 214.208 32.519 214.175 32.5924 214.157C32.6658 214.139 32.742 214.135 32.8168 214.147C44.2043 215.934 72.7527 231.763 75.8501 260.323C75.858 260.398 75.851 260.473 75.8294 260.545C75.8078 260.618 75.7722 260.685 75.7246 260.743C75.6769 260.801 75.6182 260.849 75.5518 260.885C75.4854 260.92 75.4126 260.942 75.3377 260.949L75.2808 260.961Z" fill="white"/>
<path d="M69.8489 254.549C66.1707 246.168 62.0143 242.41 50.0574 244.414C38.1005 246.418 39.8087 246.111 25.1757 242.364C19.0037 240.793 12.0687 240.543 6.14722 243.207C1.14811 245.485 -2.58698 250.04 2.2527 254.891C7.69593 260.311 15.8152 262.167 21.8278 266.939C23.1918 267.903 24.2762 269.211 24.9708 270.731C26.5536 274.762 23.3879 279.306 24.3103 283.53C25.2327 287.755 29.6738 290.01 33.8416 290.283C38.0094 290.556 42.1203 289.304 46.2768 288.825C50.4332 288.347 55.1021 288.825 57.9717 291.911C61.0463 295.18 61.1261 300.407 63.9843 303.88C68.266 309.084 78.7881 310.53 84.4818 307.296L99.388 298.698C109.238 285.421 93.6943 274.899 85.5522 264.593C81.6008 259.571 72.0581 259.594 69.8489 254.549Z" fill="#BA68C8"/>
<path d="M90.1526 290.682C90.0556 290.684 89.9598 290.66 89.8756 290.612C89.7914 290.563 89.7218 290.493 89.6743 290.409C72.6728 262.862 26.3826 248.924 10.0074 247.785C9.85831 247.774 9.71981 247.704 9.62179 247.591C9.52378 247.478 9.47413 247.331 9.48356 247.182C9.49522 247.032 9.56466 246.892 9.67724 246.792C9.78982 246.692 9.93675 246.64 10.0871 246.647C26.6787 247.785 73.413 261.929 90.6423 289.839C90.7185 289.97 90.741 290.125 90.7048 290.271C90.6687 290.418 90.5768 290.545 90.4487 290.625C90.3556 290.666 90.2543 290.686 90.1526 290.682Z" fill="white"/>
<path d="M36.3016 277.7C36.2128 277.702 36.125 277.682 36.0457 277.642C35.9663 277.602 35.8978 277.544 35.8461 277.472C35.7554 277.351 35.7165 277.199 35.7379 277.05C35.7593 276.9 35.8391 276.765 35.9599 276.675C36.5521 276.231 50.6726 265.868 64.4287 265.663C64.5029 265.662 64.5767 265.675 64.6457 265.702C64.7147 265.73 64.7776 265.771 64.8306 265.823C64.8836 265.875 64.9258 265.937 64.9545 266.005C64.9833 266.073 64.9981 266.147 64.9981 266.221C64.9996 266.296 64.9863 266.37 64.9591 266.44C64.9319 266.51 64.8912 266.573 64.8394 266.627C64.7875 266.681 64.7256 266.724 64.6571 266.754C64.5886 266.784 64.5148 266.8 64.4401 266.802C51.0825 266.996 36.814 277.483 36.666 277.586C36.5631 277.668 36.433 277.709 36.3016 277.7Z" fill="white"/>
<path d="M89.0935 300.362C89.2152 302.018 89.7249 303.622 90.5815 305.044C91.4381 306.466 92.6175 307.667 94.0243 308.549L232.189 388.319C233.717 389.094 235.406 389.498 237.12 389.498C238.833 389.498 240.522 389.094 242.05 388.319L431.083 279.17C432.573 278.383 433.82 277.205 434.69 275.762C435.56 274.32 436.019 272.667 436.019 270.982C436.019 269.297 435.56 267.644 434.69 266.202C433.82 264.759 432.573 263.581 431.083 262.794L292.93 183.082C291.402 182.307 289.712 181.903 287.999 181.903C286.285 181.903 284.596 182.307 283.068 183.082L94.0243 292.197C92.6205 293.077 91.4429 294.274 90.5865 295.692C89.7301 297.11 89.2187 298.71 89.0935 300.362Z" fill="#37474F"/>
<path d="M146.1 262.111L94.0246 292.196C92.5346 292.983 91.2875 294.161 90.4175 295.604C89.5476 297.046 89.0879 298.699 89.0879 300.384C89.0879 302.069 89.5476 303.722 90.4175 305.164C91.2875 306.607 92.5346 307.785 94.0246 308.572L232.189 388.341C233.709 389.135 235.406 389.527 237.12 389.48V262.111H146.1Z" fill="#263238"/>
<path d="M84.4591 292.356C83.0868 291.421 81.9534 290.176 81.1503 288.722C80.3472 287.268 79.897 285.646 79.8358 283.986V119.107C79.9275 117.395 80.4219 115.73 81.2787 114.246C82.1355 112.762 83.3305 111.501 84.7666 110.566L273.799 1.4169C275.226 0.5219 276.87 0.0325982 278.554 0.00157306C280.238 -0.0294521 281.899 0.398968 283.357 1.24081C284.816 2.08265 286.018 3.30609 286.834 4.77967C287.65 6.25325 288.049 7.92126 287.988 9.60451V174.495C287.894 176.206 287.399 177.871 286.543 179.355C285.686 180.839 284.492 182.1 283.057 183.036L94.0246 292.197C92.5546 292.972 90.9227 293.39 89.2609 293.418C87.5992 293.446 85.9542 293.082 84.4591 292.356Z" fill="#455A64"/>
<path d="M102.975 126.77L81.2817 114.244C80.4178 115.722 79.9436 117.395 79.9038 119.107V283.986C79.965 285.646 80.4152 287.268 81.2183 288.722C82.0214 290.176 83.1548 291.421 84.5271 292.356C86.0225 293.077 87.6663 293.435 89.3259 293.404C90.9855 293.372 92.6144 292.951 94.0812 292.174L115.649 279.727L102.975 126.77Z" fill="#263238"/>
<path d="M89.0935 124.459V289.327C89.0935 292.47 91.3027 293.745 94.0243 292.174L283.057 183.036C284.492 182.1 285.686 180.839 286.542 179.355C287.399 177.871 287.894 176.206 287.988 174.495V9.61587C287.988 6.47292 285.778 5.19752 283.057 6.76899L94.0243 115.918C92.5882 116.853 91.3932 118.114 90.5364 119.598C89.6795 121.082 89.1852 122.748 89.0935 124.459Z" fill="#37474F"/>
<path d="M94.0244 297.89L232.189 377.602C233.717 378.378 235.406 378.782 237.12 378.782C238.833 378.782 240.522 378.378 242.05 377.602L431.083 268.453C433.816 266.882 433.816 264.331 431.083 262.759L292.93 183.047C291.402 182.272 289.712 181.868 287.999 181.868C286.286 181.868 284.596 182.272 283.068 183.047L94.0244 292.196C91.2914 293.745 91.2914 296.296 94.0244 297.89Z" fill="#455A64"/>
<path d="M96.6776 125.062L280.415 18.9878C282.043 18.0426 283.376 18.8056 283.376 20.6959V163.415C283.318 164.442 283.02 165.44 282.506 166.331C281.992 167.221 281.275 167.977 280.415 168.54L96.6776 274.614C95.0378 275.559 93.7168 274.797 93.7168 272.906V130.187C93.7715 129.16 94.0683 128.16 94.5828 127.27C95.0973 126.379 95.8151 125.623 96.6776 125.062Z" fill="white"/>
<path d="M110.058 293.597L285.528 192.249C286.292 191.861 287.137 191.66 287.993 191.66C288.85 191.66 289.695 191.861 290.459 192.249L299.443 197.43C299.741 197.531 299.999 197.722 300.182 197.978C300.365 198.233 300.464 198.539 300.464 198.853C300.464 199.167 300.365 199.474 300.182 199.729C299.999 199.984 299.741 200.176 299.443 200.277L123.939 301.614C123.175 302.001 122.331 302.203 121.474 302.203C120.617 302.203 119.773 302.001 119.009 301.614L110.058 296.444C109.761 296.343 109.502 296.152 109.319 295.896C109.136 295.641 109.038 295.335 109.038 295.021C109.038 294.707 109.136 294.4 109.319 294.145C109.502 293.89 109.761 293.698 110.058 293.597Z" fill="#263238"/>
<path d="M133.197 307L308.656 205.652C309.422 205.264 310.268 205.063 311.127 205.062C311.985 205.062 312.832 205.264 313.598 205.652L368.793 237.537C369.091 237.637 369.349 237.829 369.532 238.084C369.715 238.34 369.813 238.646 369.813 238.96C369.813 239.274 369.715 239.58 369.532 239.836C369.349 240.091 369.091 240.283 368.793 240.383L193.528 341.527C192.762 341.914 191.916 342.116 191.057 342.116C190.199 342.116 189.352 341.914 188.586 341.527L133.197 309.79C132.914 309.683 132.67 309.492 132.498 309.243C132.326 308.994 132.234 308.698 132.234 308.395C132.234 308.092 132.326 307.797 132.498 307.548C132.67 307.299 132.914 307.108 133.197 307Z" fill="#263238"/>
<path d="M290.482 251.202L295.982 248.025C296.209 247.888 296.198 247.672 295.982 247.524L289.627 243.857C289.492 243.787 289.342 243.751 289.189 243.751C289.036 243.751 288.886 243.787 288.751 243.857L283.262 247.034C283.023 247.171 283.034 247.387 283.262 247.535L289.616 251.202C289.75 251.27 289.898 251.305 290.049 251.305C290.199 251.305 290.347 251.27 290.482 251.202ZM279.641 238.676L274.152 241.853C273.913 241.978 273.924 242.206 274.152 242.354L280.506 246.021C280.642 246.091 280.792 246.127 280.944 246.127C281.097 246.127 281.247 246.091 281.383 246.021L286.883 242.844C287.111 242.707 287.099 242.479 286.883 242.343L280.517 238.676C280.382 238.606 280.232 238.569 280.079 238.569C279.926 238.569 279.776 238.606 279.641 238.676ZM261.899 248.924L252.595 254.288C252.368 254.425 252.379 254.652 252.595 254.8L258.95 258.467C259.085 258.537 259.235 258.574 259.388 258.574C259.54 258.574 259.691 258.537 259.826 258.467L269.119 253.104C269.358 252.967 269.335 252.739 269.119 252.603L262.764 248.924C262.631 248.855 262.482 248.818 262.332 248.818C262.181 248.818 262.032 248.855 261.899 248.924ZM271.612 243.31L266.124 246.488C265.885 246.624 265.896 246.852 266.124 246.989L272.478 250.655C272.613 250.725 272.764 250.762 272.916 250.762C273.069 250.762 273.219 250.725 273.355 250.655L278.855 247.478C279.083 247.342 279.071 247.125 278.855 246.977L272.489 243.231C272.354 243.161 272.203 243.124 272.051 243.124C271.898 243.124 271.748 243.161 271.612 243.231V243.31ZM250.056 255.757L244.567 258.923C244.328 259.059 244.351 259.287 244.567 259.435L250.921 263.102C251.056 263.169 251.204 263.204 251.354 263.204C251.504 263.204 251.652 263.169 251.787 263.102L257.287 259.925C257.515 259.788 257.503 259.56 257.287 259.424L250.933 255.757C250.797 255.687 250.647 255.651 250.494 255.651C250.342 255.651 250.191 255.687 250.056 255.757ZM242.085 260.392L236.596 263.569C236.357 263.694 236.38 263.922 236.596 264.07L242.95 267.737C243.086 267.807 243.236 267.843 243.389 267.843C243.541 267.843 243.691 267.807 243.827 267.737L249.327 264.56C249.555 264.423 249.543 264.195 249.327 264.058L242.905 260.312C242.769 260.242 242.619 260.206 242.466 260.206C242.314 260.206 242.163 260.242 242.028 260.312L242.085 260.392ZM267.08 275.309L272.569 272.132C272.808 271.996 272.785 271.779 272.569 271.631L266.215 267.964C266.081 267.895 265.933 267.858 265.782 267.858C265.631 267.858 265.483 267.895 265.349 267.964L259.849 271.142C259.621 271.278 259.633 271.495 259.849 271.643L266.203 275.309C266.336 275.361 266.478 275.383 266.62 275.373C266.762 275.364 266.899 275.322 267.023 275.252L267.08 275.309ZM259.041 279.944L264.541 276.767C264.769 276.642 264.757 276.414 264.541 276.266L258.187 272.599C258.051 272.529 257.901 272.493 257.748 272.493C257.596 272.493 257.445 272.529 257.31 272.599L251.821 275.776C251.582 275.913 251.605 276.141 251.821 276.277L258.175 279.944C258.306 279.996 258.446 280.018 258.586 280.008C258.726 279.998 258.862 279.957 258.984 279.887L259.041 279.944ZM251.012 284.579L256.513 281.413C256.74 281.276 256.729 281.049 256.513 280.901L250.158 277.234C250.022 277.167 249.872 277.132 249.72 277.132C249.568 277.132 249.418 277.167 249.282 277.234L243.793 280.411C243.554 280.548 243.576 280.775 243.793 280.912L250.136 284.579C250.268 284.631 250.41 284.653 250.552 284.643C250.694 284.633 250.832 284.592 250.955 284.522L251.012 284.579ZM243.041 289.213L248.541 286.048C248.769 285.911 248.758 285.683 248.541 285.535L242.187 281.869C242.052 281.799 241.901 281.762 241.749 281.762C241.596 281.762 241.446 281.799 241.31 281.869L235.822 285.034C235.582 285.171 235.594 285.399 235.822 285.547L242.176 289.213C242.424 289.294 242.694 289.274 242.927 289.157L243.041 289.213ZM282.567 255.916L288.067 252.739C288.295 252.614 288.284 252.386 288.067 252.238L281.713 248.571C281.577 248.504 281.427 248.469 281.275 248.469C281.123 248.469 280.973 248.504 280.836 248.571L275.348 251.749C275.108 251.885 275.12 252.113 275.348 252.25L281.702 255.916C281.824 255.958 281.954 255.975 282.083 255.965C282.213 255.955 282.338 255.919 282.453 255.859L282.567 255.916ZM275.165 270.72L287.418 263.637C287.646 263.512 287.635 263.284 287.418 263.136L271.988 254.231C271.853 254.161 271.702 254.125 271.55 254.125C271.397 254.125 271.247 254.161 271.111 254.231L264.78 257.898C264.541 258.023 264.564 258.251 264.78 258.399L272.956 263.113C273.207 263.261 273.218 263.489 272.956 263.626L267.798 266.427C267.57 266.552 267.581 266.78 267.798 266.928L274.175 270.561C274.306 270.64 274.454 270.686 274.606 270.696C274.759 270.706 274.911 270.679 275.051 270.618L275.165 270.72ZM234.113 265.026L228.625 268.204C228.385 268.34 228.397 268.557 228.625 268.705L234.979 272.371C235.114 272.441 235.265 272.478 235.417 272.478C235.57 272.478 235.72 272.441 235.856 272.371L241.356 269.194C241.584 269.058 241.572 268.841 241.356 268.693L235.002 265.026C234.856 264.925 234.686 264.866 234.509 264.856C234.332 264.846 234.155 264.885 234 264.969L234.113 265.026ZM226.142 269.661L220.471 272.838C220.243 272.975 220.255 273.203 220.471 273.339L226.825 277.006C226.961 277.076 227.111 277.112 227.264 277.112C227.416 277.112 227.567 277.076 227.702 277.006L233.202 273.829C233.43 273.704 233.419 273.476 233.202 273.328L226.803 269.627C226.675 269.561 226.534 269.524 226.39 269.521C226.246 269.517 226.103 269.545 225.971 269.604L226.142 269.661ZM185.808 321.588C185.943 321.658 186.094 321.694 186.246 321.694C186.399 321.694 186.549 321.658 186.684 321.588L192.185 318.411C192.412 318.286 192.401 318.058 192.185 317.91L185.808 314.266C185.672 314.196 185.522 314.16 185.369 314.16C185.217 314.16 185.066 314.196 184.931 314.266L179.442 317.443C179.203 317.58 179.214 317.807 179.442 317.944L185.808 321.588ZM161.7 306.693L156.2 309.87C155.972 310.007 155.984 310.223 156.2 310.371L162.554 314.038C162.69 314.108 162.84 314.145 162.993 314.145C163.145 314.145 163.296 314.108 163.431 314.038L168.931 310.861C169.159 310.724 169.148 310.508 168.931 310.36L162.577 306.693C162.446 306.629 162.302 306.595 162.156 306.595C162.01 306.595 161.866 306.629 161.734 306.693H161.7ZM174.625 317.568C174.761 317.638 174.911 317.675 175.064 317.675C175.216 317.675 175.366 317.638 175.502 317.568L180.991 314.391C181.23 314.266 181.207 314.038 180.991 313.89L174.648 310.223C174.512 310.153 174.362 310.117 174.209 310.117C174.057 310.117 173.907 310.153 173.771 310.223L168.271 313.4C168.043 313.537 168.055 313.765 168.271 313.902L174.625 317.568ZM199.985 324.401L205.485 321.224C205.713 321.087 205.702 320.871 205.485 320.723L199.131 317.056C198.995 316.986 198.845 316.949 198.693 316.949C198.54 316.949 198.39 316.986 198.254 317.056L192.765 320.233C192.526 320.358 192.549 320.586 192.765 320.734L199.108 324.401C199.247 324.478 199.403 324.52 199.562 324.522C199.721 324.524 199.878 324.486 200.019 324.412L199.985 324.401ZM191.08 328.956C191.216 329.026 191.366 329.062 191.518 329.062C191.671 329.062 191.821 329.026 191.957 328.956L197.457 325.779C197.685 325.653 197.673 325.426 197.457 325.278L191.103 321.611C190.967 321.541 190.817 321.504 190.664 321.504C190.512 321.504 190.362 321.541 190.226 321.611L184.737 324.788C184.498 324.925 184.509 325.152 184.737 325.289L191.08 328.956ZM169.728 301.99L164.24 305.167C164.001 305.293 164.012 305.52 164.24 305.668L170.594 309.335C170.729 309.405 170.88 309.442 171.032 309.442C171.185 309.442 171.335 309.405 171.471 309.335L176.971 306.158C177.199 306.021 177.187 305.794 176.971 305.657L170.617 301.99C170.479 301.934 170.33 301.912 170.182 301.923C170.033 301.935 169.89 301.982 169.763 302.059L169.728 301.99ZM209.881 278.817L204.381 281.982C204.153 282.119 204.164 282.347 204.381 282.483L210.735 286.162C210.871 286.229 211.021 286.264 211.173 286.264C211.325 286.264 211.475 286.229 211.612 286.162L217.1 282.996C217.34 282.859 217.328 282.631 217.1 282.483L210.746 278.817C210.612 278.765 210.467 278.744 210.323 278.755C210.179 278.767 210.039 278.812 209.915 278.885L209.881 278.817ZM177.836 297.424L172.348 300.59C172.108 300.726 172.12 300.954 172.348 301.102L178.702 304.769C178.838 304.836 178.988 304.871 179.14 304.871C179.292 304.871 179.442 304.836 179.579 304.769L185.079 301.592C185.307 301.455 185.295 301.227 185.079 301.091L178.725 297.412C178.586 297.345 178.433 297.311 178.279 297.313C178.125 297.315 177.973 297.353 177.836 297.424ZM217.989 274.239L212.443 277.393C212.215 277.53 212.227 277.758 212.443 277.894L218.797 281.561C218.933 281.631 219.083 281.667 219.236 281.667C219.388 281.667 219.538 281.631 219.674 281.561L225.163 278.395C225.402 278.259 225.391 278.031 225.163 277.883L218.831 274.262C218.695 274.189 218.544 274.149 218.39 274.145C218.236 274.141 218.083 274.173 217.943 274.239H217.989ZM201.932 283.52L196.432 286.685C196.204 286.822 196.216 287.05 196.432 287.198L202.786 290.865C202.923 290.932 203.073 290.967 203.225 290.967C203.377 290.967 203.527 290.932 203.663 290.865L209.152 287.699C209.391 287.562 209.368 287.335 209.152 287.186L202.809 283.52C202.667 283.445 202.509 283.406 202.348 283.406C202.187 283.406 202.029 283.445 201.887 283.52H201.932ZM193.893 288.154L188.404 291.32C188.165 291.457 188.188 291.685 188.404 291.833L194.758 295.499C194.895 295.567 195.045 295.602 195.197 295.602C195.349 295.602 195.499 295.567 195.635 295.499L201.124 292.334C201.352 292.197 201.34 291.969 201.124 291.821L194.77 288.154C194.627 288.08 194.469 288.041 194.308 288.041C194.148 288.041 193.989 288.08 193.847 288.154H193.893ZM185.808 292.789L180.319 295.955C180.08 296.091 180.102 296.319 180.319 296.467L186.662 300.134C186.797 300.204 186.948 300.24 187.1 300.24C187.253 300.24 187.403 300.204 187.539 300.134L193.039 296.968C193.266 296.832 193.255 296.604 193.039 296.456L186.684 292.789C186.548 292.722 186.398 292.687 186.246 292.687C186.094 292.687 185.944 292.722 185.808 292.789ZM226.86 298.483L232.348 295.317C232.587 295.18 232.576 294.953 232.348 294.805L225.983 291.058C225.846 290.991 225.696 290.956 225.544 290.956C225.392 290.956 225.242 290.991 225.106 291.058L219.606 294.224C219.378 294.361 219.389 294.588 219.606 294.736L225.96 298.403C226.098 298.482 226.253 298.526 226.413 298.53C226.572 298.534 226.729 298.498 226.871 298.426L226.86 298.483ZM297.405 228.427L291.905 231.604C291.677 231.741 291.689 231.957 291.905 232.105L298.259 235.772C298.395 235.842 298.545 235.878 298.698 235.878C298.85 235.878 299 235.842 299.136 235.772L304.625 232.595C304.864 232.458 304.853 232.242 304.625 232.094L298.271 228.427C298.136 228.359 297.988 228.324 297.838 228.324C297.687 228.324 297.539 228.359 297.405 228.427ZM287.68 234.041L282.191 237.218C281.952 237.343 281.975 237.571 282.191 237.719L288.534 241.386C288.671 241.453 288.821 241.488 288.973 241.488C289.125 241.488 289.275 241.453 289.411 241.386L294.911 238.209C295.139 238.072 295.128 237.844 294.911 237.708L288.557 234.041C288.425 233.96 288.275 233.913 288.12 233.903C287.965 233.893 287.81 233.921 287.669 233.984L287.68 234.041ZM305.433 223.792L299.945 226.969C299.705 227.095 299.717 227.322 299.945 227.47L306.299 231.137C306.434 231.207 306.585 231.244 306.737 231.244C306.89 231.244 307.04 231.207 307.176 231.137L312.676 227.96C312.903 227.823 312.892 227.596 312.676 227.459L306.321 223.792C306.182 223.702 306.022 223.649 305.856 223.639C305.691 223.629 305.525 223.662 305.376 223.735L305.433 223.792ZM263.869 266.655L269.369 263.478C269.597 263.341 269.585 263.113 269.369 262.977L263.015 259.31C262.879 259.24 262.729 259.204 262.576 259.204C262.424 259.204 262.274 259.24 262.138 259.31L256.649 262.487C256.41 262.612 256.421 262.84 256.649 262.988L263.003 266.655C263.14 266.712 263.289 266.737 263.437 266.727C263.585 266.717 263.729 266.673 263.858 266.598L263.869 266.655ZM314.338 219.18C314.203 219.11 314.052 219.074 313.9 219.074C313.747 219.074 313.597 219.11 313.461 219.18L307.973 222.357C307.734 222.483 307.745 222.71 307.973 222.858L314.327 226.525C314.463 226.593 314.613 226.628 314.765 226.628C314.917 226.628 315.067 226.593 315.204 226.525L320.704 223.348C320.932 223.212 320.92 222.984 320.704 222.847L314.338 219.18ZM234.899 293.791L240.399 290.625C240.627 290.489 240.616 290.261 240.399 290.113L234.011 286.503C233.875 286.433 233.725 286.397 233.572 286.397C233.42 286.397 233.27 286.433 233.134 286.503L227.645 289.669C227.406 289.806 227.418 290.033 227.645 290.181L234 293.848C234.143 293.911 234.3 293.938 234.456 293.928C234.613 293.918 234.764 293.871 234.899 293.791ZM333.367 236.945L338.867 233.768C339.095 233.642 339.083 233.415 338.867 233.267L332.479 229.566C332.343 229.496 332.193 229.459 332.04 229.459C331.888 229.459 331.737 229.496 331.602 229.566L326.113 232.743C325.874 232.88 325.885 233.107 326.113 233.244L332.467 236.911C332.603 236.99 332.756 237.034 332.913 237.04C333.07 237.046 333.226 237.013 333.367 236.945ZM316.286 236.341L321.786 233.164C322.013 233.028 322.002 232.811 321.786 232.663L315.431 228.996C315.296 228.926 315.146 228.89 314.993 228.89C314.841 228.89 314.69 228.926 314.555 228.996L309.066 232.173C308.827 232.31 308.838 232.527 309.066 232.675L315.42 236.341C315.547 236.415 315.689 236.458 315.835 236.468C315.981 236.478 316.127 236.454 316.263 236.398L316.286 236.341ZM323.426 224.362C323.29 224.292 323.14 224.255 322.987 224.255C322.835 224.255 322.684 224.292 322.549 224.362L317.06 227.539C316.821 227.664 316.832 227.892 317.06 228.04L323.414 231.707C323.55 231.777 323.7 231.813 323.853 231.813C324.005 231.813 324.155 231.777 324.291 231.707L329.791 228.529C330.019 228.393 330.008 228.165 329.791 228.028L323.426 224.362ZM325.122 223.382L340.541 232.287C340.677 232.357 340.827 232.394 340.979 232.394C341.132 232.394 341.282 232.357 341.418 232.287L346.918 229.11C347.146 228.974 347.134 228.757 346.918 228.609L331.488 219.704C331.352 219.634 331.202 219.598 331.049 219.598C330.897 219.598 330.747 219.634 330.611 219.704L325.122 222.881C324.826 223.007 324.849 223.234 325.1 223.382H325.122ZM306.492 233.631L300.992 236.808C300.764 236.945 300.776 237.173 300.992 237.309L307.346 240.976C307.482 241.046 307.632 241.082 307.785 241.082C307.937 241.082 308.088 241.046 308.223 240.976L313.712 237.799C313.951 237.674 313.94 237.446 313.712 237.298L307.358 233.631C307.228 233.563 307.085 233.526 306.939 233.522C306.793 233.518 306.648 233.547 306.515 233.608L306.492 233.631ZM246.059 268.522L240.536 271.699C240.308 271.836 240.32 272.064 240.536 272.201L246.89 275.867C247.026 275.937 247.176 275.974 247.329 275.974C247.481 275.974 247.631 275.937 247.767 275.867L253.256 272.69C253.495 272.565 253.484 272.337 253.256 272.189L246.902 268.522C246.769 268.451 246.622 268.411 246.472 268.407C246.321 268.404 246.172 268.435 246.036 268.5L246.059 268.522ZM324.485 241.58C324.62 241.649 324.77 241.686 324.923 241.686C325.076 241.686 325.226 241.649 325.361 241.58L330.862 238.402C331.089 238.277 331.078 238.049 330.862 237.901L324.507 234.235C324.371 234.167 324.221 234.132 324.069 234.132C323.917 234.132 323.767 234.167 323.631 234.235L318.142 237.412C317.903 237.548 317.914 237.776 318.142 237.913L324.485 241.58ZM254.087 263.888L248.598 267.065C248.359 267.201 248.371 267.418 248.598 267.566L254.953 271.233C255.088 271.303 255.238 271.339 255.391 271.339C255.543 271.339 255.694 271.303 255.829 271.233L261.33 268.055C261.557 267.919 261.546 267.702 261.33 267.554L254.975 263.888C254.837 263.808 254.682 263.765 254.523 263.761C254.364 263.757 254.206 263.793 254.064 263.865L254.087 263.888ZM193.893 316.976C194.028 317.046 194.179 317.083 194.331 317.083C194.484 317.083 194.634 317.046 194.77 316.976L200.27 313.799C200.497 313.662 200.486 313.446 200.27 313.298L193.916 309.631C193.78 309.561 193.63 309.525 193.477 309.525C193.325 309.525 193.174 309.561 193.039 309.631L187.55 312.808C187.311 312.945 187.334 313.161 187.55 313.309L193.893 316.976ZM181.822 305.589L176.322 308.766C176.094 308.902 176.105 309.119 176.322 309.267L182.676 312.934C182.812 313.004 182.962 313.04 183.114 313.04C183.267 313.04 183.417 313.004 183.553 312.934L189.042 309.757C189.281 309.62 189.269 309.404 189.042 309.255L182.687 305.589C182.55 305.517 182.398 305.479 182.243 305.479C182.089 305.479 181.936 305.517 181.799 305.589H181.822ZM202.809 312.341L208.298 309.164C208.526 309.028 208.514 308.8 208.298 308.663L201.944 304.997C201.808 304.927 201.658 304.89 201.505 304.89C201.353 304.89 201.202 304.927 201.067 304.997L195.521 308.139C195.293 308.265 195.305 308.492 195.521 308.641L201.875 312.307C202.012 312.388 202.167 312.434 202.327 312.44C202.486 312.446 202.644 312.412 202.786 312.341H202.809ZM210.837 307.707L216.326 304.53C216.565 304.393 216.542 304.165 216.326 304.029L209.983 300.362C209.848 300.292 209.697 300.255 209.545 300.255C209.392 300.255 209.242 300.292 209.106 300.362L203.606 303.528C203.379 303.664 203.39 303.892 203.606 304.04L209.961 307.707C210.1 307.778 210.254 307.815 210.41 307.815C210.567 307.815 210.721 307.778 210.86 307.707H210.837ZM218.809 303.061L224.297 299.895C224.537 299.758 224.525 299.531 224.297 299.394L217.943 295.716C217.807 295.648 217.657 295.613 217.505 295.613C217.353 295.613 217.203 295.648 217.066 295.716L211.566 298.881C211.338 299.018 211.35 299.246 211.566 299.394L217.92 303.061C218.06 303.136 218.217 303.176 218.376 303.176C218.535 303.176 218.691 303.136 218.831 303.061H218.809ZM189.793 300.954L184.293 304.131C184.065 304.256 184.077 304.484 184.293 304.632L190.647 308.299C190.783 308.369 190.933 308.405 191.086 308.405C191.238 308.405 191.389 308.369 191.524 308.299L197.024 305.122C197.252 304.985 197.241 304.757 197.024 304.621L190.67 300.954C190.539 300.89 190.395 300.856 190.249 300.856C190.103 300.856 189.959 300.89 189.827 300.954H189.793ZM197.821 296.319L192.333 299.485C192.094 299.622 192.105 299.849 192.333 299.997L198.687 303.664C198.823 303.731 198.973 303.766 199.125 303.766C199.277 303.766 199.427 303.731 199.564 303.664L205.166 300.51C205.394 300.373 205.383 300.145 205.166 300.009L198.812 296.342C198.669 296.255 198.505 296.206 198.337 296.202C198.169 296.198 198.003 296.239 197.856 296.319H197.821ZM229.946 277.78L224.525 280.946C224.297 281.083 224.309 281.311 224.525 281.459L230.879 285.125C231.016 285.193 231.166 285.228 231.318 285.228C231.47 285.228 231.62 285.193 231.756 285.125L237.245 281.96C237.484 281.823 237.461 281.595 237.245 281.447L230.902 277.78C230.761 277.703 230.602 277.662 230.441 277.662C230.28 277.662 230.121 277.703 229.98 277.78H229.946ZM221.906 282.415L216.417 285.581C216.189 285.717 216.201 285.945 216.417 286.093L222.771 289.76C222.908 289.827 223.058 289.862 223.21 289.862C223.362 289.862 223.512 289.827 223.648 289.76L229.137 286.594C229.376 286.458 229.353 286.23 229.137 286.082L222.783 282.415C222.651 282.353 222.507 282.321 222.361 282.321C222.216 282.321 222.072 282.353 221.94 282.415H221.906ZM237.974 273.134L232.496 276.311C232.269 276.448 232.28 276.676 232.496 276.812L238.851 280.491C238.987 280.558 239.137 280.593 239.289 280.593C239.441 280.593 239.591 280.558 239.727 280.491L245.216 277.314C245.455 277.188 245.444 276.96 245.216 276.812L238.862 273.146C238.729 273.08 238.584 273.045 238.436 273.043C238.288 273.041 238.142 273.072 238.008 273.134H237.974ZM205.85 291.685L200.361 294.85C200.122 294.987 200.133 295.215 200.361 295.363L206.715 299.029C206.851 299.097 207.001 299.132 207.153 299.132C207.306 299.132 207.456 299.097 207.592 299.029L213.092 295.852C213.32 295.716 213.308 295.488 213.092 295.351L206.738 291.673C206.604 291.611 206.457 291.58 206.31 291.582C206.162 291.584 206.016 291.619 205.884 291.685H205.85ZM213.878 287.05L208.389 290.216C208.15 290.352 208.173 290.58 208.389 290.728L214.743 294.395C214.877 294.465 215.025 294.501 215.176 294.501C215.327 294.501 215.475 294.465 215.609 294.395L221.109 291.229C221.337 291.092 221.325 290.865 221.109 290.717L214.755 287.05C214.623 286.988 214.479 286.956 214.333 286.956C214.188 286.956 214.044 286.988 213.912 287.05H213.878ZM208.025 319.777L213.513 316.6C213.741 316.464 213.73 316.236 213.513 316.099L207.159 312.433C207.024 312.363 206.873 312.326 206.721 312.326C206.568 312.326 206.418 312.363 206.282 312.433L200.794 315.61C200.554 315.735 200.577 315.963 200.794 316.111L207.148 319.777C207.288 319.853 207.444 319.893 207.603 319.893C207.762 319.893 207.919 319.853 208.059 319.777H208.025ZM160.937 314.972L154.583 311.305C154.448 311.235 154.297 311.199 154.145 311.199C153.992 311.199 153.842 311.235 153.706 311.305L148.229 314.505C148.001 314.642 148.013 314.858 148.229 315.006L154.583 318.673C154.719 318.743 154.869 318.779 155.022 318.779C155.174 318.779 155.324 318.743 155.46 318.673L160.949 315.496C161.199 315.393 161.188 315.166 160.937 314.972ZM172.963 318.502L166.608 314.835C166.474 314.768 166.326 314.733 166.176 314.733C166.025 314.733 165.877 314.768 165.743 314.835L157.339 319.743C157.111 319.88 157.123 320.108 157.339 320.244L163.693 323.911C163.829 323.981 163.979 324.018 164.132 324.018C164.284 324.018 164.434 323.981 164.57 323.911L173.019 319.037C173.281 318.923 173.213 318.696 172.963 318.548V318.502ZM151.19 307.878L144.813 304.256C144.677 304.186 144.527 304.15 144.374 304.15C144.222 304.15 144.071 304.186 143.936 304.256L137.194 308.139C136.967 308.276 136.978 308.504 137.194 308.652L143.549 312.319C143.684 312.389 143.835 312.425 143.987 312.425C144.14 312.425 144.29 312.389 144.425 312.319L151.178 308.424C151.452 308.299 151.44 308.071 151.19 307.923V307.878ZM156.371 304.883C156.507 304.953 156.657 304.989 156.809 304.989C156.962 304.989 157.112 304.953 157.248 304.883L162.737 301.706C162.976 301.58 162.964 301.353 162.737 301.204L156.382 297.538C156.247 297.468 156.096 297.431 155.944 297.431C155.791 297.431 155.641 297.468 155.505 297.538L150.005 300.715C149.778 300.851 149.789 301.079 150.005 301.216L156.371 304.883ZM184.156 322.522L177.836 318.901C177.7 318.833 177.55 318.798 177.398 318.798C177.246 318.798 177.096 318.833 176.96 318.901L166.392 325.004C166.164 325.141 166.176 325.369 166.392 325.505L172.746 329.184C172.883 329.251 173.033 329.286 173.185 329.286C173.337 329.286 173.487 329.251 173.623 329.184L184.191 323.08C184.418 322.943 184.407 322.715 184.156 322.567V322.522ZM189.429 329.958L183.075 326.359C182.939 326.29 182.789 326.253 182.636 326.253C182.484 326.253 182.333 326.29 182.198 326.359L175.434 330.265C175.206 330.402 175.217 330.63 175.434 330.778L181.788 334.445C181.924 334.512 182.074 334.547 182.226 334.547C182.378 334.547 182.528 334.512 182.665 334.445L189.429 330.539C189.691 330.379 189.679 330.152 189.429 330.003V329.958ZM216.076 270.413C216.211 270.483 216.361 270.519 216.514 270.519C216.667 270.519 216.817 270.483 216.952 270.413L222.441 267.247C222.68 267.11 222.658 266.883 222.441 266.735L216.087 263.068C215.951 263 215.801 262.965 215.649 262.965C215.497 262.965 215.347 263 215.21 263.068L209.721 266.29C209.494 266.427 209.505 266.655 209.721 266.791L216.076 270.413ZM200.008 279.693C200.144 279.761 200.294 279.796 200.446 279.796C200.598 279.796 200.748 279.761 200.885 279.693L206.385 276.528C206.613 276.391 206.601 276.163 206.385 276.015L200.031 272.349C199.894 272.281 199.744 272.246 199.592 272.246C199.44 272.246 199.29 272.281 199.154 272.349L193.665 275.514C193.426 275.651 193.449 275.879 193.665 276.027L200.008 279.693ZM164.399 300.293C164.535 300.363 164.685 300.4 164.838 300.4C164.99 300.4 165.14 300.363 165.276 300.293L170.765 297.116C171.004 296.98 170.992 296.763 170.765 296.615L164.411 292.949C164.275 292.879 164.125 292.842 163.972 292.842C163.82 292.842 163.669 292.879 163.534 292.949L158.034 296.126C157.806 296.262 157.817 296.479 158.034 296.627L164.399 300.293ZM208.047 275.116C208.182 275.183 208.33 275.218 208.48 275.218C208.63 275.218 208.778 275.183 208.913 275.116L214.413 271.95C214.641 271.813 214.629 271.586 214.413 271.438L208.059 267.771C207.923 267.701 207.773 267.664 207.62 267.664C207.468 267.664 207.318 267.701 207.182 267.771L201.693 270.937C201.454 271.073 201.477 271.301 201.693 271.449L208.047 275.116ZM191.98 284.385C192.115 284.455 192.266 284.492 192.418 284.492C192.571 284.492 192.721 284.455 192.856 284.385L198.357 281.219C198.584 281.083 198.573 280.855 198.357 280.707L192.002 277.04C191.866 276.973 191.716 276.938 191.564 276.938C191.412 276.938 191.262 276.973 191.126 277.04L185.637 280.206C185.398 280.343 185.409 280.57 185.637 280.718L191.98 284.385ZM193.836 330.607C193.699 330.54 193.549 330.505 193.397 330.505C193.245 330.505 193.095 330.54 192.959 330.607L184.509 335.469C184.282 335.606 184.293 335.834 184.509 335.982L190.864 339.649C190.999 339.719 191.15 339.755 191.302 339.755C191.455 339.755 191.605 339.719 191.741 339.649L200.19 334.775C200.429 334.638 200.406 334.41 200.19 334.262L193.836 330.607ZM180.456 291.058C180.592 291.126 180.742 291.161 180.894 291.161C181.046 291.161 181.196 291.126 181.332 291.058L186.832 287.881C187.06 287.744 187.049 287.517 186.832 287.38L180.478 283.713C180.343 283.643 180.192 283.607 180.04 283.607C179.887 283.607 179.737 283.643 179.601 283.713L174.113 286.89C173.874 287.016 173.885 287.243 174.113 287.391L180.456 291.058ZM172.427 295.613C172.563 295.683 172.713 295.72 172.866 295.72C173.018 295.72 173.169 295.683 173.304 295.613L178.804 292.436C179.032 292.299 179.021 292.072 178.804 291.935L172.45 288.268C172.315 288.198 172.164 288.162 172.012 288.162C171.859 288.162 171.709 288.198 171.573 288.268L166.084 291.445C165.845 291.571 165.857 291.798 166.084 291.946L172.427 295.613ZM342.602 244.711C342.467 244.641 342.316 244.605 342.164 244.605C342.011 244.605 341.861 244.641 341.725 244.711L328.151 252.5C327.924 252.637 327.935 252.865 328.151 253.013L334.506 256.679C334.642 256.747 334.792 256.782 334.944 256.782C335.096 256.782 335.246 256.747 335.382 256.679L348.979 248.924C349.218 248.788 349.207 248.56 348.979 248.412L342.602 244.711ZM324.849 254.96C324.713 254.89 324.563 254.853 324.411 254.853C324.258 254.853 324.108 254.89 323.972 254.96L318.483 258.126C318.244 258.262 318.256 258.49 318.483 258.638L324.838 262.305C324.974 262.372 325.124 262.407 325.276 262.407C325.428 262.407 325.578 262.372 325.714 262.305L331.215 259.139C331.442 259.002 331.431 258.775 331.215 258.627L324.849 254.96ZM216.087 315.143L221.576 311.966C221.815 311.829 221.792 311.601 221.576 311.465L215.233 307.786C215.097 307.719 214.947 307.684 214.795 307.684C214.642 307.684 214.492 307.719 214.356 307.786L208.856 310.952C208.628 311.089 208.64 311.317 208.856 311.465L215.21 315.131C215.346 315.2 215.495 315.237 215.647 315.239C215.799 315.241 215.95 315.208 216.087 315.143ZM308.793 264.229C308.656 264.162 308.506 264.127 308.354 264.127C308.202 264.127 308.052 264.162 307.916 264.229L302.416 267.395C302.188 267.532 302.199 267.759 302.416 267.907L308.77 271.574C308.905 271.644 309.056 271.681 309.208 271.681C309.361 271.681 309.511 271.644 309.647 271.574L315.135 268.408C315.375 268.272 315.363 268.044 315.135 267.896L308.793 264.229ZM350.63 240.076C350.494 240.009 350.344 239.974 350.192 239.974C350.04 239.974 349.89 240.009 349.753 240.076L344.265 243.231C344.025 243.367 344.037 243.595 344.265 243.732L350.619 247.41C350.755 247.477 350.905 247.512 351.057 247.512C351.209 247.512 351.359 247.477 351.496 247.41L356.996 244.244C357.224 244.108 357.212 243.88 356.996 243.732L350.63 240.076ZM365.013 239.108L349.583 230.203C349.447 230.134 349.297 230.097 349.144 230.097C348.992 230.097 348.841 230.134 348.706 230.203L343.217 233.381C342.978 233.517 342.989 233.745 343.217 233.882L358.647 242.787C358.783 242.857 358.933 242.893 359.085 242.893C359.238 242.893 359.388 242.857 359.524 242.787L365.024 239.61C365.275 239.484 365.263 239.257 365.013 239.108ZM278.787 281.561C278.651 281.491 278.501 281.455 278.348 281.455C278.196 281.455 278.045 281.491 277.91 281.561L271.146 285.467C270.918 285.604 270.929 285.831 271.146 285.968L277.5 289.635C277.635 289.705 277.786 289.741 277.938 289.741C278.091 289.741 278.241 289.705 278.377 289.635L285.141 285.729C285.369 285.592 285.357 285.364 285.141 285.228L278.787 281.561ZM299.068 269.843C298.932 269.773 298.782 269.737 298.629 269.737C298.477 269.737 298.326 269.773 298.191 269.843L289.741 274.717C289.514 274.854 289.525 275.082 289.741 275.218L296.096 278.896C296.232 278.964 296.382 278.999 296.534 278.999C296.686 278.999 296.836 278.964 296.972 278.896L305.422 274.023C305.65 273.886 305.638 273.658 305.422 273.51L299.068 269.843ZM260.191 292.288C260.054 292.221 259.904 292.186 259.752 292.186C259.6 292.186 259.45 292.221 259.314 292.288L214.094 318.388C213.866 318.525 213.878 318.753 214.094 318.901L220.448 322.567C220.585 322.635 220.735 322.67 220.887 322.67C221.039 322.67 221.189 322.635 221.325 322.567L266.545 296.456C266.773 296.319 266.761 296.092 266.545 295.943L260.191 292.288ZM212.432 319.869C212.296 319.799 212.146 319.762 211.993 319.762C211.841 319.762 211.69 319.799 211.555 319.869L204.802 323.775C204.563 323.911 204.574 324.139 204.802 324.276L211.156 327.942C211.292 328.012 211.442 328.049 211.595 328.049C211.747 328.049 211.897 328.012 212.033 327.942L218.831 324.082C219.059 323.945 219.048 323.718 218.831 323.581L212.432 319.869ZM269.483 286.925C269.347 286.857 269.197 286.822 269.045 286.822C268.892 286.822 268.742 286.857 268.606 286.925L261.853 290.83C261.614 290.967 261.626 291.195 261.853 291.343L268.208 295.01C268.344 295.077 268.494 295.112 268.646 295.112C268.798 295.112 268.948 295.077 269.084 295.01L275.849 291.104C276.088 290.979 276.065 290.751 275.849 290.603L269.483 286.925ZM203.139 325.221C203.003 325.153 202.853 325.118 202.701 325.118C202.549 325.118 202.399 325.153 202.263 325.221L195.498 329.127C195.271 329.263 195.282 329.491 195.498 329.639L201.853 333.306C201.989 333.373 202.139 333.408 202.291 333.408C202.443 333.408 202.593 333.373 202.729 333.306L209.482 329.411C209.721 329.275 209.71 329.047 209.482 328.899L203.139 325.221ZM288.079 276.175C287.942 276.107 287.792 276.072 287.64 276.072C287.488 276.072 287.338 276.107 287.202 276.175L280.449 280.069C280.21 280.206 280.221 280.434 280.449 280.582L286.803 284.248C286.94 284.316 287.09 284.351 287.242 284.351C287.394 284.351 287.544 284.316 287.68 284.248L294.444 280.343C294.683 280.206 294.661 279.978 294.444 279.83L288.079 276.175ZM316.821 259.583C316.685 259.513 316.535 259.477 316.382 259.477C316.23 259.477 316.08 259.513 315.944 259.583L310.455 262.749C310.216 262.886 310.227 263.113 310.455 263.261L316.809 266.928C316.946 266.995 317.096 267.03 317.248 267.03C317.4 267.03 317.55 266.995 317.686 266.928L323.186 263.762C323.414 263.626 323.403 263.398 323.186 263.25L316.821 259.583ZM334.414 246.806L339.903 243.641C340.142 243.504 340.131 243.276 339.903 243.128L333.549 239.461C333.413 239.394 333.263 239.359 333.111 239.359C332.959 239.359 332.809 239.394 332.672 239.461L327.172 242.639C326.944 242.775 326.956 243.003 327.172 243.14L333.526 246.818C333.664 246.887 333.816 246.923 333.97 246.923C334.125 246.923 334.277 246.887 334.414 246.818V246.806ZM298.544 246.647L304.044 243.47C304.272 243.333 304.26 243.105 304.044 242.969L297.69 239.302C297.554 239.232 297.404 239.196 297.251 239.196C297.099 239.196 296.949 239.232 296.813 239.302L291.324 242.479C291.085 242.616 291.108 242.832 291.324 242.98L297.667 246.647C297.803 246.717 297.953 246.753 298.105 246.753C298.258 246.753 298.408 246.717 298.544 246.647ZM280.324 278.111L296.38 268.841C296.608 268.705 296.597 268.477 296.38 268.329L290.026 264.662C289.89 264.595 289.74 264.56 289.588 264.56C289.436 264.56 289.286 264.595 289.149 264.662L273.093 273.943C272.865 274.068 272.876 274.296 273.093 274.444L279.447 278.111C279.587 278.172 279.74 278.199 279.892 278.189C280.045 278.179 280.193 278.133 280.324 278.054V278.111ZM325.509 251.498C325.646 251.565 325.796 251.6 325.948 251.6C326.1 251.6 326.25 251.565 326.386 251.498L331.875 248.332C332.114 248.196 332.103 247.968 331.875 247.82L325.521 244.153C325.385 244.083 325.235 244.047 325.082 244.047C324.93 244.047 324.78 244.083 324.644 244.153L319.144 247.319C318.916 247.455 318.927 247.683 319.144 247.831L325.509 251.498ZM317.31 246.271L322.799 243.105C323.038 242.969 323.027 242.741 322.799 242.593L316.445 238.926C316.309 238.859 316.159 238.824 316.007 238.824C315.855 238.824 315.705 238.859 315.568 238.926L310.068 242.103C309.84 242.24 309.852 242.468 310.068 242.604L316.422 246.283C316.565 246.341 316.72 246.366 316.874 246.354C317.029 246.342 317.178 246.294 317.31 246.214V246.271ZM272.296 282.711L277.784 279.534C278.024 279.397 278.001 279.181 277.784 279.033L271.43 275.366C271.295 275.296 271.144 275.26 270.992 275.26C270.839 275.26 270.689 275.296 270.553 275.366L265.03 278.532C264.791 278.669 264.814 278.885 265.03 279.033L271.385 282.7C271.532 282.784 271.7 282.828 271.87 282.826C272.04 282.824 272.207 282.776 272.353 282.688L272.296 282.711ZM307.756 261.713C307.893 261.78 308.043 261.815 308.195 261.815C308.347 261.815 308.497 261.78 308.633 261.713L314.133 258.547C314.361 258.41 314.35 258.183 314.133 258.034L307.779 254.368C307.643 254.3 307.493 254.265 307.341 254.265C307.189 254.265 307.039 254.3 306.902 254.368L301.413 257.545C301.174 257.681 301.186 257.909 301.413 258.046L307.756 261.713ZM232.143 305.862L237.632 302.696C237.871 302.56 237.86 302.332 237.632 302.184L231.278 298.517C231.142 298.45 230.992 298.415 230.839 298.415C230.687 298.415 230.537 298.45 230.401 298.517L224.901 301.683C224.673 301.819 224.685 302.047 224.901 302.195L231.255 305.862C231.393 305.931 231.545 305.967 231.699 305.967C231.853 305.967 232.006 305.931 232.143 305.862ZM240.172 301.227L245.672 298.062C245.899 297.925 245.888 297.697 245.672 297.549L239.329 293.882C239.193 293.812 239.043 293.776 238.89 293.776C238.738 293.776 238.588 293.812 238.452 293.882L232.952 297.048C232.724 297.185 232.735 297.412 232.952 297.56L239.306 301.227C239.441 301.293 239.589 301.327 239.739 301.327C239.889 301.327 240.037 301.293 240.172 301.227ZM224.115 310.497L229.604 307.331C229.843 307.194 229.832 306.967 229.604 306.819L223.261 303.152C223.125 303.084 222.975 303.049 222.823 303.049C222.671 303.049 222.521 303.084 222.384 303.152L216.884 306.317C216.656 306.454 216.668 306.682 216.884 306.83L223.238 310.497C223.374 310.567 223.524 310.603 223.677 310.603C223.829 310.603 223.98 310.567 224.115 310.497ZM256.228 291.958L261.728 288.792C261.956 288.655 261.944 288.428 261.728 288.28L255.374 284.613C255.237 284.546 255.087 284.511 254.935 284.511C254.783 284.511 254.633 284.546 254.497 284.613L249.008 287.79C248.769 287.927 248.78 288.154 249.008 288.291L255.362 291.958C255.497 292.026 255.645 292.061 255.795 292.061C255.946 292.061 256.094 292.026 256.228 291.958ZM248.257 296.593L253.757 293.427C253.985 293.29 253.973 293.062 253.757 292.914L247.3 289.248C247.165 289.178 247.014 289.141 246.862 289.141C246.709 289.141 246.559 289.178 246.423 289.248L240.935 292.413C240.695 292.55 240.707 292.778 240.935 292.914L247.289 296.593C247.43 296.665 247.586 296.703 247.744 296.703C247.903 296.703 248.059 296.665 248.2 296.593H248.257ZM264.313 287.323L269.813 284.146C270.041 284.021 270.03 283.793 269.813 283.645L263.459 279.978C263.323 279.908 263.173 279.872 263.021 279.872C262.868 279.872 262.718 279.908 262.582 279.978L257.002 283.087C256.763 283.224 256.786 283.451 257.002 283.588L263.345 287.255C263.479 287.341 263.633 287.393 263.792 287.405C263.951 287.417 264.111 287.389 264.256 287.323H264.313ZM301.049 218.736C301.185 218.806 301.335 218.843 301.488 218.843C301.64 218.843 301.79 218.806 301.926 218.736L307.426 215.559C307.654 215.434 307.642 215.206 307.426 215.058L305.741 214.079C305.604 214.011 305.454 213.976 305.302 213.976C305.15 213.976 305 214.011 304.864 214.079L299.364 217.244C299.136 217.381 299.147 217.609 299.364 217.757L301.049 218.736ZM261.546 244.244C261.681 244.314 261.832 244.351 261.984 244.351C262.137 244.351 262.287 244.314 262.423 244.244L267.911 241.078C268.151 240.942 268.139 240.714 267.911 240.566L261.557 236.899C261.421 236.832 261.271 236.797 261.119 236.797C260.967 236.797 260.817 236.832 260.68 236.899L255.18 240.065C254.953 240.202 254.964 240.429 255.18 240.577L261.546 244.244ZM277.602 234.975C277.739 235.042 277.889 235.077 278.041 235.077C278.193 235.077 278.343 235.042 278.479 234.975L283.979 231.809C284.207 231.672 284.196 231.445 283.979 231.297L277.625 227.63C277.489 227.56 277.339 227.523 277.187 227.523C277.034 227.523 276.884 227.56 276.748 227.63L271.214 230.796C270.975 230.932 270.986 231.16 271.214 231.308L277.602 234.975ZM251.741 249.904C251.878 249.971 252.028 250.006 252.18 250.006C252.332 250.006 252.482 249.971 252.618 249.904L258.107 246.727C258.346 246.59 258.335 246.362 258.107 246.226L251.753 242.547C251.616 242.48 251.466 242.445 251.314 242.445C251.162 242.445 251.012 242.48 250.876 242.547L245.376 245.713C245.148 245.85 245.159 246.078 245.376 246.226L251.741 249.904ZM269.574 239.655C269.71 239.722 269.86 239.757 270.012 239.757C270.165 239.757 270.315 239.722 270.451 239.655L275.951 236.489C276.179 236.353 276.167 236.125 275.951 235.977L269.597 232.31C269.46 232.243 269.31 232.208 269.158 232.208C269.006 232.208 268.856 232.243 268.72 232.31L263.231 235.476C262.992 235.613 263.003 235.84 263.231 235.988L269.574 239.655ZM235.628 259.173C235.763 259.243 235.914 259.28 236.066 259.28C236.219 259.28 236.369 259.243 236.505 259.173L241.994 255.996C242.233 255.859 242.21 255.632 241.994 255.495L235.651 251.828C235.515 251.758 235.365 251.722 235.212 251.722C235.06 251.722 234.909 251.758 234.774 251.828L229.274 255.005C229.046 255.131 229.057 255.358 229.274 255.506L235.628 259.173ZM243.656 254.539C243.792 254.606 243.942 254.641 244.095 254.641C244.247 254.641 244.397 254.606 244.533 254.539L250.022 251.361C250.261 251.225 250.249 250.997 250.022 250.86L243.679 247.194C243.543 247.124 243.393 247.087 243.24 247.087C243.088 247.087 242.938 247.124 242.802 247.194L237.302 250.371C237.074 250.496 237.086 250.724 237.302 250.872L243.656 254.539ZM284.936 228.017C285.072 228.084 285.222 228.119 285.374 228.119C285.526 228.119 285.676 228.084 285.813 228.017L291.313 224.851C291.541 224.715 291.529 224.487 291.313 224.339L289.616 223.36C289.48 223.292 289.33 223.257 289.178 223.257C289.026 223.257 288.876 223.292 288.739 223.36L283.25 226.525C283.011 226.662 283.034 226.89 283.25 227.038L284.936 228.017ZM309.032 214.102C309.165 214.171 309.314 214.208 309.464 214.208C309.615 214.208 309.764 214.171 309.897 214.102L315.397 210.924C315.625 210.788 315.614 210.571 315.397 210.423L313.712 209.444C313.576 209.374 313.426 209.338 313.274 209.338C313.121 209.338 312.971 209.374 312.835 209.444L307.335 212.61C307.107 212.746 307.119 212.974 307.335 213.122L309.032 214.102ZM322.367 221.811C322.503 221.878 322.653 221.913 322.805 221.913C322.957 221.913 323.107 221.878 323.243 221.811L328.743 218.634C328.971 218.497 328.96 218.269 328.743 218.133L322.389 214.455C322.253 214.387 322.103 214.352 321.951 214.352C321.799 214.352 321.649 214.387 321.512 214.455L316.024 217.62C315.785 217.757 315.807 217.985 316.024 218.133L322.367 221.811ZM342.443 242.183L347.943 239.006C348.171 238.881 348.159 238.653 347.943 238.505L341.589 234.838C341.452 234.771 341.302 234.736 341.15 234.736C340.998 234.736 340.848 234.771 340.712 234.838L335.223 238.015C334.984 238.152 334.995 238.38 335.223 238.516L341.577 242.183C341.711 242.251 341.86 242.287 342.01 242.287C342.16 242.287 342.309 242.251 342.443 242.183ZM292.964 223.382C293.1 223.45 293.25 223.485 293.402 223.485C293.554 223.485 293.704 223.45 293.841 223.382L299.341 220.217C299.569 220.08 299.557 219.852 299.341 219.704L297.644 218.725C297.508 218.658 297.358 218.623 297.206 218.623C297.054 218.623 296.904 218.658 296.767 218.725L291.279 221.891C291.051 222.027 291.062 222.255 291.279 222.403L292.964 223.382ZM227.6 263.808C227.735 263.878 227.886 263.914 228.038 263.914C228.191 263.914 228.341 263.878 228.477 263.808L233.965 260.631C234.193 260.494 234.182 260.278 233.965 260.13L227.611 256.463C227.476 256.393 227.325 256.357 227.173 256.357C227.02 256.357 226.87 256.393 226.734 256.463L221.246 259.64C221.018 259.777 221.029 259.993 221.246 260.141L227.6 263.808Z" fill="#455A64"/>
<path d="M260.248 313.719L320.374 278.999L357.383 300.361L297.246 335.082L260.248 313.719Z" fill="#263238"/>
<path d="M126.593 138.761L305.786 35.3059C309.282 33.279 312.152 34.9415 312.152 38.9841V177.764C312.095 178.79 311.797 179.788 311.282 180.679C310.768 181.569 310.052 182.326 309.191 182.888L125.454 288.974C123.826 289.908 122.493 289.145 122.493 287.266V145.856C122.575 144.435 122.988 143.054 123.7 141.822C124.412 140.59 125.403 139.542 126.593 138.761Z" fill="#F5F5F5"/>
<path d="M312.209 42.3089V38.9837C312.209 34.9412 309.339 33.29 305.843 35.3056L126.593 138.761C125.403 139.541 124.412 140.589 123.7 141.821C122.988 143.053 122.575 144.435 122.493 145.855V151.811L312.209 42.3089Z" fill="#BA68C8"/>
<path d="M285.471 49.8817C284.832 50.298 284.299 50.8595 283.917 51.5204C283.536 52.1812 283.315 52.9229 283.274 53.6851C283.274 55.0858 284.253 55.6551 285.471 54.9491C286.109 54.534 286.639 53.9741 287.019 53.3151C287.399 52.6561 287.618 51.9167 287.658 51.1571C287.658 49.7564 286.679 49.187 285.471 49.8817Z" fill="white"/>
<path d="M294.171 44.8602C293.534 45.2778 293.003 45.8398 292.624 46.5006C292.244 47.1614 292.025 47.9024 291.985 48.6636C291.985 50.0643 292.964 50.6223 294.171 49.9276C294.811 49.5113 295.343 48.9498 295.725 48.2889C296.107 47.628 296.328 46.8864 296.369 46.1242C296.369 44.7235 295.39 44.1542 294.171 44.8602Z" fill="white"/>
<path d="M302.882 39.8267C302.245 40.2451 301.714 40.807 301.332 41.4675C300.95 42.128 300.729 42.8686 300.685 43.6302C300.685 45.0308 301.675 45.6002 302.882 44.8942C303.521 44.4796 304.053 43.9201 304.435 43.2612C304.817 42.6023 305.038 41.8626 305.08 41.1021C305.08 39.7015 304.089 39.1321 302.882 39.8267Z" fill="white"/>
<path d="M252.049 133.91V159.122C252.049 161.013 253.381 161.776 255.009 160.831L420.242 65.4374C421.102 64.8751 421.819 64.1183 422.333 63.2282C422.847 62.338 423.145 61.3395 423.203 60.3131V35.067C423.203 33.1767 421.87 32.4137 420.242 33.3589L255.009 128.752C254.145 129.318 253.426 130.081 252.912 130.977C252.397 131.873 252.102 132.878 252.049 133.91Z" fill="#E6E6E6"/>
<path d="M255.009 128.752L284.435 111.773V143.817L255.009 160.796C253.381 161.741 252.049 160.978 252.049 159.088V133.91C252.102 132.878 252.397 131.873 252.912 130.977C253.426 130.08 254.145 129.318 255.009 128.752Z" fill="#BA68C8"/>
<path d="M274.698 125.757C272.842 124.686 270.496 124.857 268.093 126.247C265.81 127.709 263.91 129.698 262.553 132.046C261.196 134.393 260.421 137.032 260.293 139.741C260.213 141.496 260.766 143.222 261.853 144.603L258.687 150.024C258.481 150.411 258.431 150.863 258.548 151.287C258.664 151.71 258.938 152.073 259.314 152.301C259.575 152.448 259.868 152.526 260.168 152.529C260.468 152.529 260.763 152.45 261.022 152.3C261.282 152.15 261.498 151.935 261.648 151.675L264.78 146.254C265.118 146.318 265.461 146.352 265.805 146.357C267.203 146.331 268.569 145.939 269.767 145.218C272.047 143.752 273.943 141.762 275.298 139.415C276.652 137.068 277.427 134.431 277.557 131.724C277.591 128.957 276.566 126.839 274.698 125.757ZM268.093 142.269C267.693 142.699 267.159 142.981 266.578 143.069C265.997 143.156 265.404 143.044 264.895 142.75C264.386 142.457 263.992 141.999 263.776 141.453C263.561 140.906 263.537 140.303 263.709 139.741C263.842 137.634 264.461 135.586 265.518 133.759C266.575 131.931 268.041 130.373 269.802 129.207C270.485 128.772 271.27 128.525 272.079 128.49C272.413 128.477 272.743 128.556 273.036 128.718C273.464 129.084 273.793 129.553 273.992 130.08C274.191 130.608 274.254 131.177 274.174 131.735C274.043 133.841 273.425 135.888 272.37 137.716C271.315 139.543 269.852 141.102 268.093 142.269Z" fill="white"/>
<path d="M229.89 200.364L236.99 196.279V177.271C236.923 177.271 236.884 177.271 236.856 177.271L230.208 181.108C229.871 181.299 229.852 181.577 229.852 181.913C229.852 184.694 229.852 187.475 229.852 190.266C229.852 190.717 229.958 190.822 230.304 190.611C231.16 190.084 232.026 189.652 232.892 189.106C233.286 188.856 233.46 188.895 233.45 189.48C233.45 190.64 233.45 191.781 233.45 192.913C233.48 193.107 233.446 193.306 233.352 193.48C233.258 193.653 233.11 193.79 232.93 193.872C232.045 194.351 231.17 194.888 230.285 195.378C230.135 195.449 230.012 195.567 229.934 195.714C229.856 195.861 229.827 196.029 229.852 196.193C229.852 197.583 229.852 198.974 229.852 200.364L226.254 202.436V178.566C225.292 179.113 224.426 179.631 223.55 180.12C222.492 180.724 222.646 180.839 222.588 179.429C222.588 178.269 222.588 177.108 222.588 175.891L218.99 177.962V173.167C218.028 173.656 217.066 174.241 216.104 174.788C215.402 175.19 215.402 175.19 215.402 174.289V171.412C215.402 170.453 215.402 170.453 216.162 169.993L218.971 168.372V163.577C217.922 164.191 216.922 164.737 215.883 165.361C215.517 165.591 215.392 165.495 215.402 164.996C215.402 163.932 215.402 162.886 215.402 161.841C215.402 160.796 215.402 160.882 216.162 160.431L219 158.791C219 157.315 219 155.914 219 154.562C219 154.035 218.846 154.025 218.5 154.236C217.624 154.773 216.739 155.195 215.864 155.771C215.488 156.001 215.383 155.886 215.392 155.397C215.392 154.217 215.392 153.066 215.392 151.877C215.392 151.378 215.267 151.311 214.902 151.532C214.026 152.069 213.141 152.577 212.266 153.047C212.09 153.131 211.949 153.271 211.863 153.445C211.778 153.619 211.753 153.817 211.794 154.006C211.794 155.186 211.794 156.394 211.794 157.583C211.82 157.734 211.798 157.889 211.731 158.027C211.664 158.165 211.554 158.278 211.419 158.35C210.351 158.945 209.283 159.559 208.215 160.163C208.215 152.663 208.215 145.164 208.215 137.664C208.215 136.312 208.215 136.312 207.176 136.907L204.656 138.355V133.56C205.714 132.956 206.724 132.352 207.744 131.795C207.919 131.71 208.06 131.57 208.147 131.397C208.234 131.224 208.262 131.027 208.225 130.836C208.225 128.084 208.225 125.332 208.225 122.56C208.225 122.042 208.109 121.918 207.715 122.157C206.907 122.656 206.099 123.059 205.291 123.577C204.781 123.903 204.588 123.855 204.598 123.097C204.598 120.46 204.598 117.861 204.598 115.224C204.598 114.6 204.492 114.437 203.992 114.735C200.785 116.601 197.578 118.446 194.371 120.268C194.15 120.367 193.968 120.537 193.855 120.751C193.742 120.964 193.703 121.21 193.746 121.448C193.746 124.075 193.746 126.732 193.746 129.359C193.789 129.6 193.749 129.848 193.634 130.063C193.519 130.279 193.335 130.45 193.111 130.549C192.284 130.98 191.456 131.508 190.629 131.968C190.263 132.189 190.129 132.102 190.138 131.604C190.138 130.472 190.138 129.369 190.138 128.228C190.138 127.662 190.033 127.489 189.58 127.777C188.734 128.305 187.887 128.784 187.05 129.235C186.869 129.315 186.72 129.452 186.626 129.626C186.532 129.799 186.499 129.999 186.531 130.194C186.531 131.345 186.531 132.524 186.531 133.704C186.506 133.972 186.406 134.228 186.242 134.442C185.155 135.104 184.068 135.718 182.923 136.36V126.828C181.769 127.489 180.681 128.103 179.594 128.746C179.45 128.943 179.361 129.174 179.335 129.417C179.335 130.625 179.335 131.824 179.335 133.004C179.374 133.195 179.347 133.395 179.258 133.569C179.168 133.743 179.023 133.882 178.844 133.963C177.968 134.452 177.083 134.989 176.208 135.468C176.031 135.552 175.888 135.691 175.799 135.865C175.71 136.038 175.681 136.236 175.717 136.427C175.717 137.473 175.717 138.528 175.717 139.582C175.717 140.637 175.717 140.541 176.477 140.12C178.401 138.988 180.412 137.847 182.384 136.734C182.557 136.638 182.875 136.667 182.875 136.792C182.875 138.211 182.875 139.669 182.875 141.194C181.807 141.798 180.806 142.402 179.816 142.939C179.624 143.029 179.467 143.179 179.37 143.366C179.273 143.553 179.24 143.767 179.277 143.975C179.277 145.337 179.277 146.717 179.277 148.089L182.856 146.056V150.851L179.402 152.932V157.727C180.431 157.142 181.461 156.566 182.49 155.953C182.875 155.723 183.01 155.78 183 156.317C183 157.708 183 159.06 183 160.431L186.733 158.35C186.733 159.942 186.579 161.563 186.675 163.097C188.897 161.822 191.062 160.556 193.275 159.319C193.448 159.213 193.775 159.252 193.785 159.376C193.785 160.796 193.785 162.253 193.785 163.778C190.35 165.763 186.935 167.71 183.51 169.705C183.308 169.82 182.99 169.849 182.99 170.347C182.99 171.796 182.99 173.224 182.99 174.768C184.049 174.155 185.049 173.608 186.04 172.994C186.473 172.735 186.637 172.803 186.617 173.407C186.617 174.548 186.617 175.641 186.617 176.782C186.617 177.396 186.762 177.444 187.194 177.195C189.215 176.006 191.235 174.864 193.255 173.685C193.659 173.445 193.823 173.493 193.813 174.078C193.813 175.21 193.813 176.332 193.813 177.435C193.848 177.646 193.811 177.862 193.708 178.05C193.606 178.237 193.443 178.385 193.246 178.47C192.39 178.94 191.524 179.477 190.667 179.947C190.508 180.023 190.377 180.148 190.294 180.303C190.211 180.458 190.18 180.636 190.206 180.81C190.206 181.903 190.206 183.026 190.206 184.1C190.257 184.352 190.222 184.615 190.105 184.845C189.988 185.074 189.796 185.258 189.561 185.366C188.753 185.778 187.945 186.325 187.137 186.737C186.947 186.826 186.792 186.974 186.694 187.16C186.597 187.345 186.563 187.557 186.598 187.763C186.598 190.755 186.598 193.651 186.598 196.691L183 198.763C183 200.134 183 201.506 183 202.887C183 203.385 183.125 203.462 183.491 203.241C184.501 202.637 185.521 202.062 186.588 201.448C186.733 204.325 186.588 207.356 186.646 210.271C186.681 210.477 186.647 210.689 186.55 210.874C186.452 211.059 186.297 211.208 186.107 211.297C185.078 211.863 184.039 212.477 183.01 213.081C183.01 214.423 183.01 215.785 183.01 217.118C183.048 217.333 183.012 217.555 182.907 217.747C182.802 217.939 182.635 218.089 182.432 218.173C181.643 218.595 180.855 219.132 180.066 219.516C179.498 219.784 179.383 220.13 179.402 220.81C179.402 222.067 179.402 223.361 179.402 224.646C180.441 224.071 181.47 223.524 182.5 222.911C182.923 222.652 183.029 222.776 183.029 223.323C183.029 226.018 183.029 228.713 183.029 231.388C183.074 231.625 183.038 231.871 182.929 232.086C182.819 232.301 182.641 232.474 182.423 232.577C180.21 233.843 178.036 235.023 175.833 236.413C175.833 237.804 175.833 239.127 175.833 240.461C175.833 240.988 175.948 241.103 176.343 240.863C177.199 240.336 178.065 239.904 178.93 239.358C179.306 239.127 179.46 239.185 179.45 239.732C179.45 240.892 179.45 242.033 179.45 243.165C179.471 243.358 179.433 243.554 179.34 243.725C179.247 243.896 179.104 244.036 178.93 244.124C178.055 244.603 177.17 245.083 176.294 245.649C176.092 245.814 175.942 246.034 175.862 246.282C175.862 247.72 175.862 249.159 175.862 250.607L183.048 246.473C183.048 245.102 183.048 243.788 183.048 242.494C183.008 242.286 183.038 242.07 183.134 241.881C183.23 241.692 183.386 241.54 183.577 241.448C184.453 240.978 185.338 240.489 186.213 239.933C186.588 239.703 186.704 239.818 186.694 240.307C186.694 241.487 186.694 242.637 186.694 243.817C186.694 244.249 186.762 244.421 187.127 244.201C189.244 242.964 191.351 241.755 193.457 240.556C193.607 240.481 193.728 240.361 193.804 240.213C193.88 240.065 193.907 239.896 193.881 239.732C193.881 238.571 193.881 237.382 193.881 236.231C193.859 236.039 193.895 235.844 193.986 235.673C194.078 235.502 194.218 235.362 194.391 235.272C195.256 234.802 196.113 234.313 196.979 233.786C197.383 233.536 197.488 233.709 197.479 234.208C197.479 235.291 197.479 236.346 197.479 237.44C197.479 238.149 197.623 238.216 198.133 237.929C201.529 235.905 204.915 234.093 208.312 232.002C208.312 227.514 208.312 223.045 208.312 218.576C208.312 217.962 208.408 217.617 208.918 217.387C209.726 216.974 210.534 216.428 211.342 216.015C211.548 215.931 211.718 215.777 211.824 215.581C211.929 215.386 211.963 215.159 211.919 214.941C211.919 213.79 211.919 212.601 211.919 211.441C211.893 211.268 211.923 211.091 212.004 210.936C212.085 210.781 212.214 210.655 212.371 210.578C213.276 210.089 214.17 209.571 215.065 209.034C215.421 208.813 215.517 208.948 215.517 209.389C215.517 210.616 215.517 211.815 215.517 213.042C215.517 213.474 215.633 213.56 215.941 213.369C217.018 212.736 218.028 212.17 219.115 211.537C219.115 214.663 219.115 217.655 219.115 220.638C219.127 220.78 219.093 220.923 219.019 221.045C218.944 221.167 218.834 221.263 218.702 221.319C217.788 221.846 216.874 222.354 215.96 222.901C215.604 223.112 215.498 222.997 215.508 222.546C215.508 221.367 215.508 220.216 215.508 219.036C215.508 218.566 215.431 218.394 215.036 218.633C214.161 219.171 213.285 219.679 212.4 220.158C212.23 220.25 212.091 220.39 212.002 220.561C211.912 220.732 211.877 220.926 211.9 221.117C211.9 222.182 211.9 223.246 211.9 224.349C211.9 225.03 212.035 225.164 212.545 224.848C213.507 224.234 214.469 223.716 215.498 223.131V227.734L219.096 225.663C219.096 224.455 219.096 223.313 219.096 222.163C219.096 220.82 218.942 221.041 219.981 220.446C221.905 219.334 223.829 218.212 225.754 217.137C225.965 217.039 226.137 216.874 226.243 216.667C226.349 216.46 226.384 216.224 226.34 215.996C226.196 210.712 227.12 211.872 223.146 213.838C222.992 213.915 222.723 213.838 222.723 213.685C222.723 212.285 222.723 210.856 222.723 209.379C224.897 208.027 227.033 206.886 229.207 205.601C229.938 205.179 229.938 205.179 229.938 204.172C229.813 202.896 229.785 201.707 229.89 200.364ZM183.048 146.056V141.261C184.251 140.58 185.395 139.851 186.588 139.132C186.588 137.751 186.675 136.341 186.675 134.97C186.647 134.806 186.671 134.638 186.746 134.489C186.82 134.341 186.94 134.22 187.089 134.145C188.051 133.637 188.926 133.109 189.84 132.572C190.167 132.38 190.263 132.495 190.263 132.908C190.263 137.306 190.263 141.705 190.263 146.104C190.287 146.279 190.255 146.457 190.172 146.613C190.089 146.77 189.96 146.897 189.802 146.976C188.917 147.456 188.041 147.935 187.156 148.492C186.79 148.712 186.656 148.636 186.665 148.137C186.665 146.737 186.665 145.404 186.665 144.023L183.048 146.056ZM189.715 156.547C188.753 157.084 187.791 157.679 186.781 158.254C186.701 158.085 186.64 157.909 186.598 157.727C186.598 156.519 186.598 155.301 186.598 154.102C186.569 153.928 186.596 153.75 186.676 153.593C186.755 153.436 186.883 153.309 187.041 153.229C187.935 152.75 188.83 152.27 189.725 151.685C190.1 151.465 190.206 151.608 190.196 152.078C190.196 153.229 190.196 154.38 190.196 155.502C190.236 155.71 190.206 155.925 190.11 156.114C190.014 156.304 189.859 156.456 189.667 156.547H189.715ZM215.787 179.784L218.981 177.972V182.709C217.836 183.371 216.739 184.013 215.633 184.627C215.556 184.627 215.411 184.483 215.411 184.33C215.411 183.064 215.411 181.769 215.411 180.494C215.392 180.351 215.418 180.206 215.485 180.079C215.552 179.952 215.658 179.849 215.787 179.784ZM208.581 164.804C209.543 164.258 210.438 163.74 211.371 163.184C211.679 163.001 211.813 163.059 211.813 163.491C211.813 164.718 211.813 165.936 211.813 167.144C211.833 167.309 211.801 167.476 211.722 167.622C211.642 167.768 211.52 167.886 211.371 167.96C210.476 168.458 209.572 168.919 208.677 169.513C208.292 169.743 208.206 169.58 208.206 169.11C208.206 167.777 208.206 166.463 208.206 165.14C208.319 165.019 208.445 164.91 208.581 164.814V164.804ZM208.215 175.104C208.19 174.939 208.219 174.77 208.299 174.622C208.379 174.475 208.505 174.358 208.658 174.289C209.12 174.04 209.572 173.771 210.034 173.503C210.495 173.234 210.948 172.994 211.4 172.716C211.698 172.534 211.813 172.63 211.804 173.023C211.804 174.27 211.804 175.507 211.804 176.734C211.825 176.888 211.796 177.045 211.721 177.181C211.647 177.317 211.531 177.426 211.39 177.492C210.428 178.01 209.562 178.528 208.639 179.074C208.331 179.266 208.206 179.18 208.215 178.748C208.225 177.54 208.225 176.322 208.215 175.114V175.104ZM204.617 147.35C204.644 147.512 204.618 147.679 204.543 147.825C204.469 147.971 204.35 148.091 204.204 148.166C203.242 148.683 202.337 149.22 201.414 149.767C201.163 149.911 201.019 149.911 201.019 149.518C201.019 148.079 201.019 146.641 201.019 145.193C202.049 144.598 203.078 144.023 204.107 143.409C204.473 143.188 204.588 143.284 204.579 143.783C204.598 144.991 204.608 146.219 204.617 147.36V147.35ZM197.402 151.426C197.438 151.617 197.411 151.814 197.324 151.987C197.237 152.16 197.096 152.3 196.921 152.385C196.045 152.865 195.16 153.344 194.285 153.9C193.91 154.121 193.794 154.006 193.804 153.526C193.804 150.755 193.804 148.003 193.804 145.25C193.804 144.943 193.804 144.627 194.131 144.425L201.029 140.465V145.26C200.067 145.845 198.999 146.478 197.989 147.015C197.765 147.116 197.583 147.29 197.471 147.507C197.36 147.725 197.325 147.974 197.373 148.214C197.421 149.22 197.383 150.343 197.402 151.436V151.426ZM193.804 130.875C193.766 130.683 193.794 130.485 193.883 130.311C193.972 130.137 194.117 129.998 194.294 129.916C195.045 129.503 195.805 129.053 196.565 128.621C197.527 128.074 197.392 128.276 197.392 127C197.392 126.041 197.392 125.025 197.392 124.056C197.37 123.864 197.407 123.669 197.498 123.498C197.589 123.327 197.73 123.187 197.902 123.097C198.768 122.627 199.624 122.138 200.49 121.611C200.894 121.361 201.048 121.438 201.038 122.013C201.038 123.414 201.038 124.679 201.038 126.08L204.617 124.018C204.617 125.552 204.617 126.981 204.617 128.439C204.529 128.68 204.372 128.89 204.165 129.043C201.943 130.347 199.711 131.584 197.488 133.013C197.488 134.394 197.421 135.804 197.421 137.166C197.451 137.34 197.423 137.52 197.342 137.678C197.26 137.835 197.129 137.962 196.969 138.038C196.084 138.518 195.208 138.997 194.333 139.554C193.967 139.774 193.823 139.707 193.833 139.208C193.826 136.421 193.817 133.643 193.804 130.875ZM186.665 196.576C187.762 195.943 188.859 195.301 189.956 194.658C190.042 194.658 190.196 194.793 190.196 194.936C190.196 196.215 190.196 197.519 190.196 198.849C190.172 199.05 190.084 199.238 189.946 199.386C188.859 200.038 187.781 200.652 186.665 201.304V196.576ZM190.215 236.951C190.239 237.127 190.206 237.306 190.122 237.463C190.037 237.62 189.905 237.746 189.744 237.823C188.849 238.322 187.955 238.84 187.05 239.377C186.742 239.559 186.608 239.492 186.617 239.051C186.617 238.437 186.617 237.842 186.617 237.229C186.617 236.615 186.617 235.982 186.617 235.311C186.668 235.055 186.792 234.818 186.973 234.63C187.935 234.054 188.84 233.546 189.763 232.999C190.1 232.798 190.186 232.951 190.186 233.354C190.206 234.563 190.206 235.752 190.215 236.941V236.951ZM190.215 222.565C190.189 222.829 190.093 223.08 189.936 223.294C188.868 223.946 187.801 224.551 186.646 225.212V221.98C186.646 220.465 186.646 220.456 187.772 219.813L190.34 218.384C190.216 219.781 190.168 221.183 190.196 222.585L190.215 222.565ZM193.188 216.696C192.226 217.195 191.264 217.799 190.302 218.355C190.165 216.976 190.127 215.588 190.186 214.203C190.186 213.752 190.081 213.637 189.734 213.848C188.84 214.385 187.935 214.903 187.041 215.382C186.896 215.469 186.627 215.382 186.617 215.248C186.617 213.848 186.617 212.419 186.617 210.885L189.398 209.293C190.283 208.775 190.206 208.938 190.206 207.72V199.271L192.553 197.919C193.794 197.2 193.794 197.2 193.794 198.878C193.794 204.411 193.794 209.954 193.794 215.488C193.813 216.14 193.688 216.437 193.169 216.715L193.188 216.696ZM200.519 226.843C196.584 228.876 197.527 229.72 197.421 224.435C197.421 223.975 197.306 223.889 196.969 224.1C192.928 226.277 193.996 226.919 193.813 221.789C193.78 221.58 193.817 221.367 193.918 221.181C194.019 220.996 194.178 220.849 194.371 220.763C196.594 219.506 198.816 218.212 201.048 216.926C201.048 219.88 201.048 222.853 201.048 225.797C201.091 226.01 201.06 226.232 200.961 226.425C200.861 226.619 200.699 226.773 200.5 226.862L200.519 226.843ZM204.636 214.845L201.029 216.917C201.029 213.915 201.029 210.913 201.029 207.912C201.01 207.759 201.039 207.605 201.111 207.469C201.183 207.334 201.296 207.224 201.433 207.154C202.395 206.636 203.299 206.099 204.232 205.553C204.473 205.409 204.627 205.399 204.627 205.792C204.608 208.775 204.617 211.767 204.617 214.865L204.636 214.845ZM204.636 199.847C204.659 200.039 204.622 200.234 204.531 200.405C204.44 200.576 204.299 200.716 204.127 200.806C203.27 201.266 202.405 201.765 201.548 202.292C201.163 202.522 201.01 202.474 201.029 201.928C201.029 200.758 201.029 199.636 201.029 198.475C201.029 197.957 200.933 197.833 200.529 198.072C199.653 198.619 198.768 199.031 197.893 199.616C197.537 199.827 197.383 199.77 197.392 199.262C197.392 198.063 197.392 196.874 197.392 195.684C197.367 195.51 197.399 195.333 197.484 195.179C197.569 195.024 197.702 194.902 197.864 194.831C198.778 194.323 199.692 193.776 200.615 193.258C200.755 193.194 200.871 193.087 200.945 192.952C201.02 192.817 201.049 192.662 201.029 192.51C201.029 191.148 201.029 189.758 201.029 188.3C198.806 189.451 196.594 190.813 194.371 192.088C193.938 192.337 193.785 192.261 193.794 191.666C193.794 190.506 193.794 189.365 193.794 188.223C193.757 188.032 193.785 187.833 193.873 187.659C193.962 187.486 194.107 187.346 194.285 187.264C195.141 186.785 196.007 186.305 196.873 185.787C197.053 185.707 197.203 185.57 197.297 185.396C197.391 185.223 197.424 185.023 197.392 184.828C197.392 178.691 197.46 172.457 197.335 166.358C196.315 166.953 195.333 167.49 194.352 168.094C193.91 168.362 193.775 168.247 193.785 167.662C193.785 166.339 193.785 165.044 193.785 163.644L201.01 159.491V155.655C201.01 154.696 201.01 154.696 201.721 154.294C202.433 153.891 203.309 153.411 204.098 152.922C204.502 152.673 204.608 152.807 204.598 153.315C204.598 156.298 204.598 159.204 204.598 162.186L208.186 160.124V165.082C208.071 165.098 207.958 165.127 207.85 165.169C205.589 166.511 203.328 167.681 201.067 169.129V173.848L203.867 172.237C204.627 171.805 204.627 171.805 204.627 172.783V186.209C206.859 184.915 209.052 183.678 211.284 182.373C211.688 182.134 211.842 182.182 211.823 182.767C211.823 183.879 211.823 184.982 211.823 186.066C211.867 186.293 211.834 186.528 211.727 186.733C211.621 186.939 211.448 187.102 211.236 187.197C209.023 188.434 206.849 189.71 204.627 190.985C204.617 193.977 204.608 196.912 204.627 199.866L204.636 199.847ZM218.99 201.841C215.575 203.817 212.189 205.754 208.773 207.739C208.34 207.988 208.206 207.921 208.206 207.327C208.206 203.037 208.206 198.756 208.206 194.486C208.169 194.258 208.208 194.025 208.317 193.822C208.427 193.619 208.601 193.458 208.812 193.364C212.019 191.548 215.225 189.707 218.432 187.84C218.904 187.562 219.029 187.667 219.029 188.281C218.981 192.817 219 197.305 218.99 201.841ZM158.294 217.665C157.939 217.876 157.794 217.828 157.794 217.329C157.794 214.539 157.794 211.767 157.794 208.995C157.77 208.805 157.804 208.612 157.892 208.441C157.979 208.27 158.116 208.129 158.285 208.036C160.382 206.847 162.473 205.645 164.557 204.431C164.933 204.21 165.029 204.335 165.029 204.814C165.029 206.214 165.029 207.595 165.029 208.986C167.232 207.72 169.435 206.435 171.638 205.198C171.842 205.113 172.011 204.962 172.116 204.768C172.222 204.574 172.257 204.35 172.215 204.133C172.215 202.81 172.215 201.458 172.215 200.115C169.82 201.256 167.405 202.906 165.029 204.124C165.029 202.704 165.029 201.362 165.029 200C165.029 199.54 164.913 199.444 164.577 199.645C163.692 200.173 162.816 200.604 161.941 201.18C161.537 201.419 161.421 201.304 161.421 200.786C161.421 197.804 161.421 194.908 161.421 191.916C159.199 193.201 157.015 194.438 154.793 195.752C154.331 196.03 154.177 195.915 154.196 195.291C154.196 194.179 154.196 193.076 154.196 191.992C154.152 191.775 154.184 191.55 154.288 191.354C154.391 191.159 154.559 191.004 154.764 190.918C158.179 188.943 161.594 187.082 165.01 184.982C165.01 181.913 165.01 178.931 165.01 175.938C165.01 175.545 164.846 175.564 164.606 175.708C163.643 176.245 162.739 176.792 161.806 177.31C161.668 177.38 161.556 177.492 161.485 177.63C161.414 177.768 161.388 177.924 161.412 178.077C161.412 179.516 161.412 180.858 161.412 182.325L159.026 183.706C157.785 184.416 157.785 184.416 157.785 182.747V179.621C156.726 180.235 155.764 180.82 154.802 181.328C154.292 181.587 154.177 181.903 154.177 182.517C154.177 185.394 154.244 188.271 154.177 191.263L147.087 195.349C146.981 196.826 147.087 198.12 147.029 199.559C147.029 200.115 147.183 200.144 147.558 199.914C148.443 199.386 149.319 198.955 150.204 198.389C150.521 198.197 150.637 198.293 150.637 198.715C150.637 199.914 150.637 201.112 150.637 202.292C150.663 202.479 150.627 202.669 150.535 202.833C150.443 202.997 150.3 203.127 150.127 203.203C149.29 203.673 148.443 204.162 147.596 204.642C147.397 204.736 147.233 204.893 147.131 205.089C147.029 205.284 146.993 205.508 147.029 205.725C147.029 208.602 146.981 211.614 147.029 214.5C148.087 213.896 149.088 213.301 150.136 212.736C150.281 212.649 150.55 212.736 150.55 212.812C150.55 214.26 150.55 215.689 150.55 217.291L147.029 219.314V224.109C148.087 223.496 149.088 222.939 150.088 222.335C150.463 222.115 150.579 222.22 150.569 222.7C150.569 223.908 150.569 225.088 150.569 226.286C150.569 226.699 150.675 226.814 151.002 226.622C151.913 226.079 152.827 225.551 153.744 225.04C153.892 224.961 154.012 224.838 154.088 224.689C154.163 224.54 154.191 224.371 154.167 224.205C154.167 222.824 154.167 221.443 154.167 220.034L157.698 218.001C157.746 219.343 157.698 220.695 157.698 222.067C157.698 222.537 157.785 222.7 158.169 222.47C159.074 221.923 159.968 221.405 160.863 220.916C161.041 220.835 161.186 220.696 161.274 220.521C161.361 220.347 161.386 220.148 161.344 219.957C161.344 218.595 161.344 217.214 161.344 215.833C160.392 216.466 159.343 217.051 158.294 217.665ZM154.206 220.005C153.061 220.667 151.983 221.3 150.896 221.923C150.81 221.923 150.637 221.817 150.637 221.683C150.637 220.273 150.637 218.806 150.637 217.329C151.781 216.668 152.84 216.054 153.888 215.478C154.004 215.411 154.196 215.545 154.206 215.689C154.215 217.061 154.206 218.49 154.206 220.005ZM157.313 203.855C156.592 204.248 155.87 204.67 155.149 205.092C154.1 205.716 154.187 205.466 154.187 206.857C154.187 207.816 154.187 208.823 154.187 209.791C154.213 209.968 154.183 210.149 154.1 210.308C154.017 210.466 153.886 210.594 153.725 210.674C152.83 211.172 151.935 211.633 151.041 212.218C150.694 212.429 150.588 212.304 150.588 211.863C150.588 210.453 150.588 209.053 150.588 207.653C150.588 206.253 150.588 204.987 150.588 203.663C150.548 203.455 150.579 203.24 150.674 203.051C150.77 202.862 150.926 202.71 151.118 202.618C153.167 201.467 155.226 200.278 157.275 199.079C157.631 198.868 157.785 198.916 157.775 199.425C157.775 200.604 157.775 201.774 157.775 202.925C157.806 203.109 157.779 203.298 157.696 203.465C157.613 203.632 157.479 203.769 157.313 203.855ZM212.496 143.438L236.99 129.34V96.8107C236.99 95.8517 236.99 95.8517 236.249 96.2545L212.496 109.92C211.804 110.314 211.804 110.323 211.804 111.234V142.881C211.804 143.793 211.804 143.793 212.496 143.399V143.438ZM216.008 112.654C221.588 109.457 227.165 106.26 232.738 103.063C233.296 102.747 233.411 102.939 233.402 103.62C233.402 107.321 233.402 111.014 233.402 114.706C233.402 118.398 233.402 122.1 233.402 125.782C233.446 126.032 233.406 126.289 233.287 126.512C233.169 126.736 232.979 126.915 232.748 127.019C227.168 130.216 221.591 133.413 216.018 136.61C215.546 136.878 215.383 136.821 215.383 136.159C215.383 128.717 215.383 121.281 215.383 113.852C215.34 113.612 215.379 113.364 215.492 113.147C215.605 112.931 215.786 112.757 216.008 112.654ZM147.702 180.743C155.662 176.153 163.615 171.572 171.561 167C172.254 166.607 172.254 166.607 172.254 165.687V134.039C172.254 133.128 172.254 133.128 171.561 133.522C163.403 138.249 155.206 142.843 147.096 147.638C147.019 158.552 147.096 169.36 147.096 180.244C147.019 180.906 147.154 181.012 147.664 180.743H147.702ZM150.656 151.091C150.623 150.871 150.661 150.646 150.765 150.45C150.869 150.253 151.033 150.095 151.233 149.997C156.864 146.801 162.492 143.562 168.117 140.283C168.569 140.014 168.665 140.196 168.665 140.743C168.665 144.521 168.665 148.281 168.665 152.04C168.665 155.799 168.665 159.434 168.665 163.117C168.703 163.345 168.664 163.58 168.555 163.785C168.445 163.989 168.271 164.152 168.059 164.248C162.454 167.445 156.845 170.673 151.233 173.934C150.81 174.183 150.646 174.126 150.646 173.531C150.64 166.026 150.63 158.536 150.617 151.062L150.656 151.091ZM171.619 219.583C163.441 224.308 155.267 229.016 147.096 233.709C147.01 244.642 147.096 255.459 147.096 266.363C147.096 267.035 147.231 267.14 147.741 266.843C155.925 262.118 164.108 257.406 172.292 252.707C172.292 241.838 172.292 230.97 172.292 220.101C172.225 219.362 172.09 219.257 171.58 219.554L171.619 219.583ZM168.059 250.357C162.46 253.554 156.867 256.773 151.281 260.015C150.781 260.302 150.646 260.168 150.656 259.535C150.656 252.112 150.656 244.699 150.656 237.296C150.609 237.046 150.647 236.788 150.763 236.562C150.88 236.336 151.069 236.156 151.3 236.049C154.11 234.457 156.928 232.827 159.738 231.206C162.547 229.585 165.298 228.022 168.079 226.411C168.55 226.133 168.675 226.258 168.665 226.871C168.665 234.332 168.665 241.79 168.665 249.245C168.686 249.47 168.635 249.696 168.519 249.891C168.403 250.086 168.229 250.239 168.021 250.329L168.059 250.357ZM236.99 138.882L233.44 140.925C233.44 139.477 233.44 138.134 233.44 136.773C233.44 136.322 233.334 136.207 232.979 136.418C232.084 136.955 231.189 137.473 230.294 137.962C230.134 138.043 230.003 138.173 229.922 138.334C229.84 138.494 229.812 138.676 229.842 138.854C229.842 140.033 229.842 141.222 229.842 142.431C229.842 142.891 229.958 142.968 230.294 142.766C231.179 142.229 232.055 141.807 232.94 141.222C233.344 140.973 233.45 141.117 233.44 141.625C233.44 142.786 233.44 143.936 233.44 145.058C233.47 145.254 233.434 145.454 233.338 145.627C233.243 145.8 233.093 145.938 232.911 146.017C230.679 147.283 228.505 148.549 226.263 149.853C226.263 151.397 226.263 152.865 226.263 154.313C226.263 154.438 226.523 154.495 226.658 154.418C227.485 153.977 228.313 153.459 229.14 153.009C229.967 152.558 229.823 152.625 229.823 153.555C229.823 156.202 229.823 158.839 229.823 161.486C229.823 162.004 229.948 162.119 230.342 161.879C231.189 161.362 232.036 160.92 232.873 160.403C233.286 160.153 233.44 160.23 233.431 160.796C233.431 161.87 233.431 162.925 233.431 163.951C233.489 164.211 233.454 164.484 233.333 164.722C233.212 164.96 233.012 165.148 232.767 165.255C230.583 166.435 228.428 167.806 226.244 168.957C226.244 166.013 226.244 163.136 226.244 160.192C226.244 159.597 226.109 159.491 225.677 159.77C224.83 160.287 223.983 160.729 223.137 161.227C222.949 161.316 222.795 161.463 222.698 161.646C222.6 161.829 222.566 162.039 222.598 162.244C222.598 165.178 222.54 168.161 222.598 171.067C223.791 170.347 224.936 169.753 226.119 169.149C226.119 170.712 226.206 172.189 226.186 173.819C227.225 173.215 228.178 172.716 229.073 172.102C229.64 171.738 229.765 171.939 229.736 172.639C229.736 173.762 229.736 174.836 229.736 175.948C229.736 176.351 229.823 176.485 230.16 176.284C231.122 175.737 231.988 175.21 232.902 174.711C233.05 174.635 233.172 174.515 233.25 174.367C233.327 174.219 233.357 174.051 233.334 173.886C233.334 172.793 233.334 171.69 233.334 170.587C233.334 169.686 233.334 169.676 234.027 169.283L236.856 167.653C237.019 162.963 236.856 158.427 236.923 153.785C236.923 153.335 236.779 153.315 236.48 153.498C235.595 154.016 234.72 154.457 233.835 155.022C233.44 155.262 233.315 155.138 233.325 154.62C233.325 153.459 233.325 152.318 233.325 151.186C233.287 150.995 233.315 150.796 233.404 150.623C233.493 150.449 233.638 150.31 233.815 150.227C234.643 149.777 235.47 149.268 236.298 148.818C236.52 148.722 236.703 148.555 236.819 148.342C236.934 148.13 236.974 147.886 236.933 147.648C236.942 144.732 237.038 141.759 236.952 138.854L236.99 138.882ZM179.383 195.982C179.383 194.821 179.383 193.661 179.383 192.501C179.383 191.139 179.383 191.139 180.412 190.582L182.942 189.134V179.611L179.498 181.597C179.429 181.664 179.371 181.742 179.325 181.827C179.356 181.897 179.375 181.971 179.383 182.047C179.383 184.924 179.383 187.801 179.383 190.678C179.405 190.831 179.376 190.986 179.301 191.121C179.227 191.256 179.11 191.363 178.969 191.426C178.007 191.944 177.141 192.462 176.227 193.009C175.881 193.21 175.775 193.095 175.775 192.644C175.775 191.465 175.775 190.314 175.775 189.134C175.775 188.655 175.679 188.53 175.304 188.751C173.226 189.959 171.157 191.148 169.079 192.328C168.902 192.41 168.757 192.549 168.668 192.723C168.579 192.897 168.551 193.095 168.588 193.287C168.588 194.447 168.588 195.617 168.588 196.787C168.588 197.286 168.704 197.391 169.069 197.161C169.945 196.634 170.83 196.202 171.705 195.636C172.081 195.406 172.196 195.531 172.187 196.01C172.187 197.411 172.187 198.801 172.187 200.192C174.611 198.638 176.978 197.324 179.383 195.982ZM233.95 207.586C234.816 207.135 235.672 206.627 236.538 206.118C236.696 206.039 236.825 205.912 236.907 205.755C236.988 205.599 237.017 205.42 236.99 205.246C236.99 204.047 236.99 202.829 236.99 201.602C236.99 201.208 236.884 201.122 236.596 201.304C235.634 201.851 234.729 202.388 233.796 202.906C233.65 202.985 233.532 203.109 233.46 203.258C233.387 203.408 233.364 203.576 233.392 203.74C233.392 204.91 233.392 206.09 233.392 207.24C233.413 207.434 233.375 207.629 233.282 207.801C233.19 207.972 233.047 208.111 232.873 208.199C232.007 208.669 231.151 209.158 230.285 209.676C230.113 209.754 229.972 209.884 229.882 210.048C229.792 210.213 229.757 210.402 229.785 210.587C229.785 213.343 229.785 216.102 229.785 218.864C229.785 219.41 229.938 219.449 230.314 219.218C231.333 218.605 232.353 218.039 233.373 217.454L236.538 215.632C236.689 215.566 236.815 215.452 236.895 215.309C236.975 215.165 237.005 214.999 236.981 214.836C236.981 213.627 236.981 212.41 236.981 211.182C236.981 210.712 236.846 210.664 236.519 210.866C235.634 211.393 234.758 211.825 233.873 212.39C233.517 212.611 233.373 212.515 233.383 212.026C233.383 210.894 233.383 209.772 233.383 208.66C233.349 208.445 233.387 208.225 233.489 208.034C233.591 207.842 233.753 207.688 233.95 207.595V207.586ZM179.402 172.524C179.391 172.366 179.368 172.209 179.335 172.054L176.15 173.886C175.804 174.078 175.804 174.366 175.804 174.682C175.804 177.473 175.804 180.244 175.804 183.035C175.804 183.591 175.967 183.611 176.333 183.39C177.277 182.757 178.287 182.227 179.344 181.808C179.38 181.614 179.402 181.419 179.412 181.223L179.402 172.524ZM182.538 208.506L175.804 212.342C175.804 213.714 175.804 215.076 175.804 216.457C175.804 216.994 175.948 217.042 176.323 216.821C178.546 215.526 180.768 214.251 182.981 212.985C182.981 211.585 182.981 210.194 182.981 208.784C183.01 208.324 182.865 208.295 182.538 208.487V208.506ZM171.85 181.127C170.888 181.692 169.926 182.23 168.964 182.767C168.835 182.829 168.728 182.93 168.659 183.056C168.591 183.181 168.562 183.325 168.579 183.467C168.579 184.742 168.579 186.027 168.579 187.303C168.579 187.725 168.733 187.734 169.002 187.571C169.474 187.284 169.964 187.025 170.426 186.746C170.888 186.468 171.388 186.257 171.792 185.941C171.976 185.756 172.103 185.524 172.158 185.27C172.158 183.975 172.158 182.699 172.158 181.434C172.215 181.05 172.167 180.944 171.85 181.108V181.127ZM150.242 184.004C149.28 184.512 148.318 185.059 147.356 185.634C147.182 185.798 147.059 186.007 147 186.238C147 187.677 147 189.115 147 190.611C148.145 189.95 149.213 189.345 150.281 188.693C150.436 188.534 150.537 188.329 150.569 188.108C150.569 186.814 150.569 185.529 150.569 184.272C150.598 184.119 150.377 183.946 150.242 184.013V184.004ZM179.402 166.617C179.402 167.02 179.469 167.173 179.806 166.972C180.768 166.425 181.663 165.888 182.596 165.37C182.734 165.302 182.847 165.192 182.92 165.056C182.992 164.92 183.02 164.765 183 164.613C183 163.212 183 161.793 183 160.383L179.431 162.445C179.402 163.845 179.412 165.226 179.402 166.626V166.617ZM171.811 171.565L169.021 173.177C168.882 173.247 168.769 173.358 168.697 173.496C168.624 173.633 168.596 173.79 168.617 173.944C168.617 175.2 168.617 176.456 168.617 177.722C168.617 178.096 168.742 178.135 169.002 177.981C169.964 177.425 170.926 176.878 171.84 176.341C171.968 176.278 172.073 176.177 172.141 176.051C172.208 175.926 172.234 175.782 172.215 175.641C172.215 175.018 172.215 174.385 172.215 173.723C172.215 173.061 172.215 172.467 172.215 171.805C172.225 171.469 172.1 171.402 171.811 171.575V171.565ZM161.498 211.067V215.814L165.077 213.762V208.967L161.498 211.067ZM176.198 149.978C176.06 150.049 175.948 150.161 175.875 150.298C175.803 150.436 175.775 150.592 175.794 150.745C175.794 151.954 175.794 153.152 175.794 154.38C175.794 154.898 175.958 154.907 176.294 154.706C177.324 154.092 178.353 153.517 179.383 152.932V148.137C178.324 148.751 177.257 149.364 176.198 149.949V149.978ZM176.285 159.453C176.106 159.534 175.96 159.673 175.871 159.847C175.782 160.021 175.755 160.221 175.794 160.412C175.794 161.569 175.794 162.739 175.794 163.922C175.794 164.43 175.929 164.497 176.285 164.277C177.314 163.663 178.353 163.078 179.383 162.484V157.689C178.353 158.283 177.314 158.887 176.285 159.453ZM222.194 142.584C221.232 143.131 220.328 143.668 219.394 144.186C219.257 144.255 219.145 144.365 219.073 144.501C219 144.637 218.972 144.791 218.99 144.943C218.99 146.2 218.99 147.475 218.99 148.722C218.99 148.885 219.154 149.077 219.24 149.029C220.328 148.444 221.415 147.801 222.56 147.111C222.56 145.586 222.56 144.234 222.56 142.786C222.588 142.431 222.444 142.44 222.194 142.584ZM175.804 227.14C175.804 228.444 175.804 229.758 175.804 231.053C175.804 231.187 175.977 231.331 176.073 231.283C177.16 230.688 178.247 230.046 179.354 229.413V224.618L176.256 226.44C176.113 226.489 175.99 226.584 175.908 226.712C175.826 226.839 175.789 226.99 175.804 227.14ZM215.046 194.534C214.574 194.754 214.084 195.061 213.622 195.33C213.16 195.598 212.66 195.886 212.198 196.145C212.068 196.207 211.961 196.308 211.89 196.433C211.82 196.558 211.79 196.702 211.804 196.845C211.804 198.12 211.804 199.415 211.804 200.681C211.804 200.834 212.015 200.988 212.131 200.93C213.093 200.412 214.055 199.856 215.017 199.262C215.183 199.085 215.297 198.866 215.344 198.629C215.344 197.334 215.344 196.049 215.344 194.793C215.373 194.668 215.171 194.514 215.046 194.572V194.534ZM178.844 205.802C179.045 205.716 179.21 205.565 179.313 205.374C179.416 205.182 179.451 204.961 179.412 204.747C179.412 203.424 179.412 202.071 179.412 200.729L182.981 198.648V193.91L179.412 195.963C179.412 197.545 179.412 199.127 179.412 200.758C178.382 201.343 177.353 201.956 176.323 202.513C176.153 202.604 176.014 202.744 175.925 202.915C175.835 203.086 175.8 203.28 175.823 203.472C175.823 204.824 175.823 206.205 175.823 207.576L165.067 213.781C165.067 215.171 165.067 216.572 165.067 217.972C165.067 218.451 165.202 218.48 165.529 218.288L175.842 212.342C175.842 210.75 175.842 209.168 175.842 207.547C176.824 207.01 177.834 206.397 178.844 205.84V205.802ZM219.606 129.714C223.002 127.739 226.34 125.811 229.765 123.855C229.871 119.28 229.765 114.85 229.823 110.304C229.823 109.613 229.659 109.527 229.159 109.824C225.763 111.848 222.425 113.66 218.99 115.742C218.99 120.258 218.99 124.737 218.99 129.264C218.981 129.964 219.135 130.031 219.606 129.753V129.714ZM154.187 166.636C154.187 167.183 154.302 167.298 154.725 167.048C156.361 166.089 157.996 165.13 159.632 164.171C161.267 163.212 162.835 162.311 164.442 161.419C164.644 161.335 164.812 161.185 164.917 160.993C165.022 160.801 165.058 160.579 165.019 160.364C165.019 156.049 165.019 151.733 165.019 147.389C165.019 146.871 164.904 146.765 164.509 146.986C161.238 148.904 157.967 150.787 154.696 152.635C154.526 152.726 154.387 152.866 154.298 153.037C154.209 153.208 154.173 153.402 154.196 153.594C154.215 158.024 154.215 162.34 154.206 166.674L154.187 166.636ZM164.471 233.23C161.075 235.215 157.736 237.142 154.292 239.099C154.196 243.673 154.292 248.104 154.244 252.64C154.244 253.311 154.379 253.445 154.898 253.139C158.294 251.115 161.633 249.303 165.067 247.222C165.067 242.705 165.067 238.226 165.067 233.709C165.038 233.067 164.913 232.942 164.471 233.23Z" fill="#263238"/>
</svg>
