<svg width="506" height="470" viewBox="0 0 506 470" fill="none" xmlns="http://www.w3.org/2000/svg">
<path d="M74.0668 434.422C172.83 481.489 332.948 481.503 431.711 434.422C530.474 387.341 530.46 311.037 431.711 263.97C332.963 216.903 172.83 216.903 74.0668 263.97C-24.6961 311.037 -24.6818 387.355 74.0668 434.422Z" fill="#F5F5F5"/>
<path d="M431.367 399.638C449.557 399.638 464.302 392.611 464.302 383.944C464.302 375.277 449.557 368.25 431.367 368.25C413.177 368.25 398.432 375.277 398.432 383.944C398.432 392.611 413.177 399.638 431.367 399.638Z" fill="#EBEBEB"/>
<path d="M66.5723 386.194L78.2243 379.473C84.73 374.164 89.6816 367.197 92.5565 359.307C96.1538 349.389 95.6522 341.851 93.0724 338.067C89.905 333.409 81.6927 334.226 81.3631 344.029C80.6751 363.349 75.0426 376.749 66.5723 386.194Z" fill="#BA68C8"/>
<path opacity="0.2" d="M66.5723 386.194L78.2243 379.473C84.73 374.164 89.6816 367.197 92.5565 359.307C96.1538 349.389 95.6522 341.851 93.0724 338.067C89.905 333.409 81.6927 334.226 81.3631 344.029C80.6751 363.349 75.0426 376.749 66.5723 386.194Z" fill="black"/>
<path d="M66.5711 386.911C66.4194 386.909 66.2721 386.859 66.1506 386.769C66.0291 386.678 65.9396 386.551 65.895 386.405C65.8503 386.26 65.8529 386.105 65.9023 385.961C65.9517 385.818 66.0454 385.694 66.1698 385.607C93.1143 366.975 87.8973 340.991 87.84 340.733C87.8203 340.639 87.8192 340.542 87.837 340.447C87.8547 340.353 87.8909 340.263 87.9435 340.182C87.9961 340.102 88.064 340.032 88.1434 339.978C88.2227 339.924 88.312 339.886 88.4061 339.866C88.5003 339.846 88.5973 339.845 88.6918 339.863C88.7864 339.881 88.8764 339.917 88.9569 339.969C89.0375 340.022 89.1068 340.09 89.1611 340.169C89.2154 340.249 89.2535 340.338 89.2732 340.432C89.2732 340.704 94.7768 367.577 67.0297 386.782C66.8951 386.874 66.734 386.92 66.5711 386.911Z" fill="white"/>
<path d="M43.2235 399.681C43.2235 399.681 39.1675 396.384 40.1421 391.913C41.1167 387.441 43.7394 384.231 39.2535 378.469C34.7675 372.708 33.5206 365.026 38.8808 360.869C42.9655 357.645 49.3433 362.202 51.6365 353.703C53.3277 347.483 52.7544 333.71 60.6801 329.124C68.6057 324.537 73.579 331.446 72.3321 340.79C71.2428 349.146 69.695 357.186 70.8989 359.422C73.2207 363.722 77.1907 363.134 77.0044 370.988C76.8467 378.297 69.9243 384.345 69.9243 384.345L43.2235 399.681Z" fill="#BA68C8"/>
<path d="M56.539 392.672C56.3638 392.671 56.1951 392.606 56.0636 392.49C55.932 392.375 55.8465 392.215 55.8224 392.042C53.7729 375.058 58.6889 345.735 62.7019 337.021C62.7356 336.924 62.7897 336.836 62.8605 336.762C62.9313 336.688 63.0171 336.63 63.1122 336.592C63.2072 336.554 63.3094 336.537 63.4116 336.541C63.5139 336.546 63.614 336.573 63.7051 336.619C63.7907 336.658 63.8676 336.713 63.9314 336.782C63.9953 336.851 64.0447 336.932 64.0768 337.02C64.1088 337.108 64.1229 337.202 64.1181 337.295C64.1134 337.389 64.0899 337.481 64.0491 337.565C60.0791 346.165 55.3351 375.574 57.2986 391.813C57.3188 392.001 57.2638 392.189 57.1457 392.337C57.0276 392.484 56.8559 392.579 56.668 392.601L56.539 392.672Z" fill="white"/>
<path d="M56.1518 379.443C56.0421 379.449 55.9331 379.424 55.8365 379.372C50.8632 376.95 47.7101 368.307 47.5811 367.906C47.546 367.817 47.5291 367.722 47.5315 367.626C47.5338 367.53 47.5553 367.436 47.5948 367.348C47.6342 367.261 47.6907 367.183 47.7611 367.117C47.8314 367.052 47.914 367.002 48.0041 366.969C48.0942 366.937 48.1899 366.923 48.2856 366.928C48.3813 366.933 48.475 366.957 48.5612 366.999C48.6473 367.041 48.7242 367.1 48.7873 367.172C48.8504 367.244 48.8983 367.328 48.9284 367.419C48.9284 367.505 52.0098 375.875 56.4671 378.039C56.6133 378.11 56.7311 378.228 56.8012 378.375C56.8713 378.521 56.8895 378.687 56.8529 378.846C56.8162 379.004 56.7269 379.145 56.5995 379.246C56.4721 379.347 56.3142 379.401 56.1518 379.4V379.443Z" fill="white"/>
<path d="M56.0658 385.177C55.9222 385.177 55.782 385.133 55.6641 385.051C55.5463 384.969 55.4564 384.853 55.4065 384.718C55.3352 384.543 55.3359 384.347 55.4083 384.172C55.4808 383.998 55.6192 383.859 55.7935 383.786C64.1635 380.433 69.3804 370.472 69.4377 370.357C69.5251 370.188 69.6762 370.06 69.8576 370.003C70.039 369.945 70.236 369.961 70.4051 370.049C70.5743 370.136 70.7018 370.287 70.7596 370.469C70.8174 370.65 70.8007 370.847 70.7133 371.016C70.484 371.446 65.1954 381.565 56.3811 385.119C56.2829 385.166 56.1741 385.186 56.0658 385.177Z" fill="white"/>
<path d="M348.627 308.07C348.627 308.07 342.364 297.923 341.748 286.901C341.132 275.88 343.554 271.294 346.879 269.975C350.204 268.656 350.462 272.712 352.167 275.106C353.873 277.499 357.356 276.138 358.646 268.671C359.935 261.204 364.636 248.606 374.411 246.155C385.16 243.489 379.399 256.101 376.69 261.017C373.981 265.933 371.888 272.641 373.666 274.461C375.443 276.281 378.209 272.913 380.832 276.037C384.028 279.807 374.096 293.379 368.391 296.661L348.627 308.07Z" fill="#BA68C8"/>
<path d="M357.212 303.813C357.118 303.809 357.025 303.787 356.94 303.747C356.854 303.708 356.777 303.652 356.713 303.583C356.65 303.513 356.6 303.432 356.567 303.344C356.535 303.256 356.52 303.162 356.524 303.067C357.495 285.338 363.023 268.159 372.576 253.192C372.63 253.114 372.7 253.047 372.78 252.997C372.86 252.947 372.95 252.913 373.044 252.898C373.138 252.883 373.234 252.888 373.326 252.911C373.418 252.934 373.504 252.976 373.579 253.034C373.729 253.145 373.83 253.311 373.86 253.496C373.889 253.681 373.845 253.87 373.737 254.023C364.355 268.771 358.926 285.686 357.972 303.139C357.966 303.233 357.942 303.325 357.901 303.41C357.86 303.495 357.802 303.571 357.732 303.634C357.661 303.696 357.579 303.744 357.49 303.775C357.401 303.806 357.306 303.818 357.212 303.813Z" fill="white"/>
<path d="M358.029 295.343C357.909 295.341 357.791 295.312 357.685 295.257C353.672 293.035 351.45 286.442 351.364 286.17C351.333 286.081 351.319 285.986 351.324 285.891C351.33 285.797 351.354 285.704 351.395 285.619C351.436 285.533 351.494 285.457 351.565 285.394C351.636 285.331 351.719 285.283 351.809 285.253C351.989 285.194 352.186 285.209 352.355 285.295C352.524 285.381 352.652 285.531 352.712 285.711C352.712 285.711 354.861 292.061 358.444 293.995C358.607 294.091 358.726 294.246 358.776 294.428C358.827 294.609 358.806 294.804 358.717 294.97C358.652 295.093 358.552 295.195 358.429 295.261C358.307 295.327 358.167 295.356 358.029 295.343Z" fill="white"/>
<path d="M358.732 291C358.573 290.999 358.419 290.944 358.295 290.845C358.17 290.747 358.082 290.61 358.044 290.456C358.02 290.365 358.015 290.271 358.028 290.179C358.041 290.086 358.073 289.997 358.121 289.917C358.169 289.837 358.233 289.768 358.308 289.712C358.383 289.657 358.469 289.617 358.56 289.596C368.907 286.973 372.49 281.555 372.519 281.498C372.57 281.418 372.636 281.349 372.714 281.294C372.791 281.24 372.879 281.201 372.971 281.181C373.064 281.16 373.159 281.158 373.253 281.174C373.346 281.19 373.435 281.225 373.515 281.276C373.595 281.327 373.664 281.393 373.719 281.47C373.773 281.548 373.812 281.635 373.833 281.728C373.853 281.82 373.855 281.916 373.839 282.009C373.823 282.103 373.788 282.192 373.737 282.272C373.58 282.516 369.853 288.205 358.918 290.986L358.732 291Z" fill="white"/>
<path d="M192.694 285.798C192.694 285.798 178.949 282.444 178.233 256.703C177.473 228.928 181.601 196.508 165.334 193.885C149.067 191.263 140.037 211.084 140.238 234.23C140.424 254.496 148.594 298.496 192.637 307.124L192.694 285.798Z" fill="#BA68C8"/>
<path opacity="0.2" d="M192.694 285.798C192.694 285.798 178.949 282.444 178.233 256.703C177.473 228.928 181.601 196.508 165.334 193.885C149.067 191.263 140.037 211.084 140.238 234.23C140.424 254.496 148.594 298.496 192.637 307.124L192.694 285.798Z" fill="black"/>
<path d="M192.693 304.487H192.564C182.66 302.681 174.591 297.22 168.586 288.277C150.785 261.719 156.389 212.13 158.238 203.474C158.279 203.289 158.391 203.128 158.548 203.024C158.706 202.92 158.898 202.88 159.084 202.915C159.269 202.959 159.431 203.073 159.535 203.233C159.639 203.393 159.677 203.587 159.643 203.775C157.822 212.374 152.247 261.333 169.775 287.474C172.327 291.528 175.693 295.008 179.66 297.692C183.628 300.377 188.109 302.207 192.822 303.068C192.915 303.085 193.004 303.121 193.084 303.173C193.163 303.224 193.232 303.292 193.285 303.37C193.339 303.449 193.376 303.538 193.395 303.631C193.413 303.724 193.414 303.82 193.395 303.913C193.364 304.076 193.277 304.224 193.149 304.329C193.02 304.433 192.858 304.489 192.693 304.487Z" fill="white"/>
<path d="M192.694 370.544C178.491 372.464 155.431 372.435 142.116 361.944C128.801 351.453 131.582 342.424 136.698 338.655C141.815 334.885 146.258 330.586 137.458 322.216C128.658 313.846 114.527 300.402 109.94 280.237C105.354 260.071 107.619 247.459 116.619 243.26C125.347 239.189 127.655 245.667 133.001 259.025C138.347 272.383 150.371 260.931 160.662 265.102C170.952 269.273 170.537 277.528 171.182 284.622C171.827 291.717 175.223 293.68 181.057 293.68C186.89 293.68 192.694 297.034 192.694 303.713V370.544Z" fill="#BA68C8"/>
<path d="M192.694 347.125C192.633 347.138 192.569 347.138 192.508 347.125C191.892 346.953 177.201 342.682 155.803 323.032C133.015 302.107 122.266 270.72 122.151 270.405C122.096 270.224 122.113 270.029 122.199 269.861C122.284 269.693 122.432 269.564 122.61 269.502C122.789 269.442 122.983 269.456 123.152 269.539C123.321 269.622 123.451 269.768 123.513 269.946C123.613 270.261 134.262 301.305 156.778 321.972C177.875 341.363 192.737 345.706 192.895 345.749C192.985 345.775 193.069 345.819 193.143 345.878C193.216 345.937 193.277 346.01 193.322 346.092C193.368 346.175 193.396 346.265 193.407 346.359C193.417 346.452 193.408 346.547 193.382 346.637C193.336 346.782 193.243 346.908 193.119 346.996C192.995 347.084 192.846 347.129 192.694 347.125Z" fill="white"/>
<path d="M161.78 328.02C161.635 328.022 161.494 327.979 161.376 327.897C161.258 327.815 161.168 327.697 161.12 327.562C156.52 315.752 155.473 290.484 155.387 289.409C155.383 289.22 155.453 289.037 155.581 288.898C155.709 288.759 155.886 288.675 156.075 288.664C156.262 288.667 156.442 288.738 156.58 288.865C156.717 288.992 156.803 289.166 156.821 289.352C156.821 289.61 157.895 315.451 162.41 327.046C162.445 327.134 162.461 327.228 162.459 327.323C162.457 327.418 162.436 327.512 162.397 327.598C162.358 327.685 162.303 327.763 162.234 327.828C162.165 327.893 162.083 327.944 161.994 327.977C161.925 328.002 161.853 328.016 161.78 328.02Z" fill="white"/>
<path d="M161.665 345.003C160.343 345.014 159.023 344.947 157.709 344.803C157.615 344.792 157.524 344.762 157.441 344.715C157.359 344.669 157.286 344.607 157.227 344.532C157.169 344.458 157.126 344.372 157.1 344.281C157.074 344.19 157.067 344.094 157.078 344C157.09 343.906 157.119 343.815 157.166 343.733C157.212 343.65 157.275 343.577 157.349 343.519C157.424 343.46 157.509 343.417 157.6 343.391C157.691 343.366 157.787 343.358 157.881 343.37C158.01 343.37 171.353 344.889 177.473 338.654C177.537 338.579 177.615 338.517 177.704 338.474C177.793 338.43 177.889 338.405 177.988 338.401C178.086 338.396 178.185 338.412 178.277 338.448C178.369 338.483 178.453 338.537 178.524 338.606C178.594 338.676 178.649 338.759 178.686 338.851C178.723 338.942 178.74 339.041 178.737 339.139C178.734 339.238 178.71 339.335 178.668 339.424C178.625 339.513 178.565 339.593 178.491 339.658C174.062 344.23 166.337 345.003 161.665 345.003Z" fill="white"/>
<path d="M151.346 73.6098L149.798 64.6808L141.83 69.9264C141.102 68.4933 140.069 67.2362 138.806 66.243L142.618 55.9239L135.452 54.333L130.206 64.3655C128.308 64.6857 126.468 65.2845 124.746 66.1427L122.467 58.5753L113.954 65.2684L114.513 74.1544C112.779 76.0964 111.207 78.1767 109.812 80.3745L102.789 80.0162L97.8586 91.0663L103.892 93.6461C103.263 95.9317 102.864 98.2749 102.703 100.64L95.0352 107.692L96.5687 116.635L104.552 111.389C105.276 112.821 106.309 114.074 107.576 115.058L103.835 125.392L111.001 126.968L118.511 119.659C120.245 119.387 119.815 116.119 121.707 115.187L123.986 122.726L132.485 116.047L132.27 112.55C133.99 110.63 140.497 106.402 141.901 104.195L143.664 101.328L148.594 90.278L146.301 86.1217L143.75 80.7042L151.346 73.6098ZM125.333 103.005C118.798 108.136 116.734 109.268 115.63 102.403C114.527 95.538 118.268 85.1041 124.803 79.9589C131.339 74.8137 133.832 74.4554 135.008 81.3061C136.183 88.1569 131.883 97.9314 125.333 103.005Z" fill="#E0E0E0"/>
<path d="M135.509 54.333L144.81 59.6932L139.565 69.6971L130.263 64.3369L135.509 54.333Z" fill="#F5F5F5"/>
<path d="M159.101 70.0416L151.133 75.2872L141.831 69.927L149.8 64.6814L159.101 70.0416Z" fill="#F5F5F5"/>
<path d="M157.823 95.5956L151.789 93.0301L142.488 87.6699L148.522 90.2354L157.823 95.5956Z" fill="#E0E0E0"/>
<path d="M103.821 125.392L113.123 130.738L116.935 120.419L107.634 115.059L103.821 125.392Z" fill="#E0E0E0"/>
<path d="M133.201 128.087L123.914 122.726L121.635 115.188L130.936 120.548L133.201 128.087Z" fill="#E0E0E0"/>
<path d="M160.633 78.9703L159.1 70.0414L151.131 75.287C150.398 73.8532 149.361 72.5963 148.093 71.6036L151.905 61.2845L144.811 59.6936L139.551 69.7261C137.653 70.0463 135.813 70.6452 134.09 71.5033L131.826 63.9646L123.312 70.6577L123.871 79.5436C122.136 81.4993 120.564 83.5941 119.17 85.8068L112.133 85.4485L107.203 96.4986L113.237 99.0784C112.613 101.37 112.214 103.717 112.047 106.087L104.394 113.038L105.928 121.981L113.896 116.736C114.63 118.165 115.667 119.417 116.935 120.405L113.122 130.724L120.288 132.315L125.534 122.282C127.439 121.966 129.285 121.361 131.009 120.491L133.273 128.029L141.787 121.351L141.228 112.465C142.961 110.523 144.534 108.442 145.929 106.244L152.966 106.588L157.896 95.5383L151.776 92.9729C152.411 90.6828 152.814 88.3349 152.98 85.9644L160.633 78.9703ZM134.649 108.423C128.128 113.554 121.879 112.164 120.69 105.313C119.5 98.4621 123.843 88.7306 130.378 83.5996C136.914 78.4687 143.148 79.8733 144.338 86.724C145.527 93.5748 141.185 103.292 134.649 108.423Z" fill="#EBEBEB"/>
<path d="M131.826 63.9357L122.525 58.5754L114.011 65.2686L123.313 70.6288L131.826 63.9357Z" fill="#F5F5F5"/>
<path d="M114.011 65.2686L114.57 74.1545L123.872 79.5147L123.313 70.6288L114.011 65.2686Z" fill="#E0E0E0"/>
<path d="M119.171 85.7345L109.869 80.3743L102.846 80.0303L112.133 85.3905L119.171 85.7345Z" fill="#F5F5F5"/>
<path d="M102.847 80.0303L97.9165 91.066L107.204 96.4263L112.134 85.3905L102.847 80.0303Z" fill="#E0E0E0"/>
<path d="M112.048 106.001L102.761 100.641L95.0933 107.692L104.381 113.052L112.048 106.001Z" fill="#F5F5F5"/>
<path d="M105.928 121.995L96.6268 116.635L95.0933 107.692L104.381 113.052L105.928 121.995Z" fill="#E0E0E0"/>
<path d="M144.81 59.6932L135.508 54.333L142.617 55.9239L151.904 61.2841L144.81 59.6932Z" fill="#F5F5F5"/>
<path d="M109.698 33.0786V19.7354L99.0775 24.5223C98.515 22.2585 97.5436 20.1165 96.2111 18.2018L102.904 4.71528L94.7349 0L86.3936 12.5406C84.069 12.3376 81.727 12.5659 79.4855 13.2142L78.3102 1.61954L66.7585 8.29832L65.5976 21.1973C63.0836 23.4249 60.7718 25.871 58.6895 28.5067L50.3482 25.6402L42.1789 39.8004L48.8576 45.5333C47.6236 48.6541 46.6644 51.8767 45.9912 55.1645L35.3711 62.6315V75.9891L45.9912 71.2022C46.5537 73.466 47.5251 75.608 48.8576 77.5226L42.2075 91.0235L50.3769 95.7388L58.7182 83.1982C61.0427 83.4006 63.3846 83.1722 65.6263 82.5246L66.7872 94.1193L78.3389 87.4405L79.5141 74.5415C83.1196 73.2261 86.3136 70.9814 88.7727 68.0348L94.7635 70.1416L102.933 55.9957L97.9166 51.6961C99.0056 48.1107 99.4091 44.3522 99.1062 40.6173L109.698 33.0786ZM72.5344 66.4152C63.6771 71.5318 58.2022 67.8484 58.2022 57.6583C58.2022 47.4681 65.5259 34.8701 74.3975 29.7536C83.2691 24.637 88.6294 28.3203 88.6294 38.5965C88.6294 48.8727 81.406 61.2843 72.5344 66.4152Z" fill="#E0E0E0"/>
<path d="M104.021 5.3459L94.7334 0L86.3921 12.5406L95.6793 17.9009L104.021 5.3459Z" fill="#F5F5F5"/>
<path d="M118.999 25.0958L109.697 19.7356L99.0771 24.5225L108.379 29.8828L118.999 25.0958Z" fill="#F5F5F5"/>
<path d="M76.0448 99.4791L66.7576 94.1189L65.5967 82.5242L74.8839 87.8844L76.0448 99.4791Z" fill="#E0E0E0"/>
<path d="M42.1636 91.0232L51.4651 96.3834L58.1583 82.8969L48.8567 77.5366L42.1636 91.0232Z" fill="#E0E0E0"/>
<path d="M118.998 38.5105V25.1672L108.378 29.9112C107.822 27.6453 106.85 25.5022 105.512 23.5907L112.205 10.1041L104.036 5.37451L95.6944 17.9295C93.3698 17.7193 91.0264 17.9478 88.7863 18.6031L87.611 6.97972L76.0593 13.6585L74.8841 26.5574C72.3736 28.7888 70.0622 31.2345 67.976 33.8668L59.6346 31.0004L51.4653 45.1606L58.1584 50.8934C56.9178 54.012 55.9585 57.2352 55.292 60.5247L44.6719 67.9917V81.3493L55.292 76.5623C55.8483 78.8283 56.8202 80.9714 58.1584 82.8828L51.4653 96.3694L59.6346 101.085L67.976 88.544C70.3005 88.7471 72.6425 88.5187 74.8841 87.8704L76.0593 99.4651L87.611 92.7863L88.7719 79.8874C91.286 77.6597 93.5977 75.2137 95.68 72.578L104.021 75.4444L112.191 61.2986L105.498 55.5657C106.738 52.447 107.697 49.2238 108.364 45.9345L118.998 38.5105ZM81.8351 71.847C72.9635 76.9636 65.7688 72.8073 65.7688 62.5741C65.7688 52.341 72.9349 39.8863 81.8351 34.7554C90.7354 29.6245 97.8872 33.7952 97.8872 44.0283C97.8872 54.2615 90.6924 66.6445 81.8351 71.7754V71.847Z" fill="#EBEBEB"/>
<path d="M58.6885 28.5351L67.9757 33.8953L59.6344 30.9859L50.3472 25.6113L58.6885 28.5351Z" fill="#F0F0F0"/>
<path d="M50.3464 25.6263L42.1748 39.7913L51.4733 45.1554L59.6448 30.9905L50.3464 25.6263Z" fill="#F5F5F5"/>
<path d="M42.1636 39.7717L51.4651 45.132L58.1583 50.8935L48.8567 45.5476L42.1636 39.7717Z" fill="#E0E0E0"/>
<path d="M45.9912 55.1787L55.2928 60.5389L44.6727 68.006L35.3711 62.6458L45.9912 55.1787Z" fill="#F5F5F5"/>
<path d="M35.3711 62.6458L44.6727 68.006V81.3635L35.3711 76.0033V62.6458Z" fill="#E0E0E0"/>
<path d="M87.6111 6.97985L78.3095 1.61963L66.7578 8.29841L76.0451 13.6586L87.6111 6.97985Z" fill="#F5F5F5"/>
<path d="M206.853 389.72L341.576 311.925C341.872 311.821 342.13 311.627 342.311 311.37C342.493 311.113 342.591 310.806 342.591 310.492C342.591 310.177 342.493 309.87 342.311 309.614C342.13 309.357 341.872 309.163 341.576 309.059L329.121 301.893C328.35 301.504 327.498 301.302 326.634 301.302C325.771 301.302 324.919 301.504 324.148 301.893L189.383 379.616C189.086 379.72 188.829 379.914 188.647 380.171C188.465 380.428 188.367 380.734 188.367 381.049C188.367 381.364 188.465 381.671 188.647 381.927C188.829 382.184 189.086 382.378 189.383 382.482L201.88 389.648C202.646 390.048 203.495 390.262 204.358 390.275C205.222 390.287 206.076 390.097 206.853 389.72Z" fill="#E0E0E0"/>
<path d="M337.878 11.566L216.399 81.7076C214.593 82.8861 213.09 84.4734 212.012 86.3409C210.934 88.2084 210.311 90.3036 210.193 92.4567V380.633C210.193 384.589 212.973 386.194 216.399 384.216L337.878 314.075C339.686 312.899 341.191 311.312 342.269 309.444C343.348 307.576 343.97 305.48 344.084 303.326V15.1491C344.084 11.1934 341.318 9.58818 337.878 11.566Z" fill="#455A64"/>
<path d="M216.398 81.7076L337.877 11.5661C340.944 9.78887 343.481 10.8925 343.997 13.9739C343.711 12.0365 343.017 10.1818 341.962 8.53166C340.908 6.88155 339.515 5.47344 337.877 4.39998L332.832 1.53355C330.909 0.557821 328.783 0.0493164 326.627 0.0493164C324.47 0.0493164 322.344 0.557821 320.421 1.53355L198.927 71.6178C197.097 72.7652 195.588 74.3579 194.542 76.2471L212.012 86.2796C213.059 84.4054 214.569 82.8312 216.398 81.7076Z" fill="#37474F"/>
<path d="M192.694 370.544C192.812 372.697 193.435 374.792 194.513 376.659C195.591 378.527 197.094 380.114 198.9 381.293L203.959 384.159C205.71 385.035 207.626 385.531 209.582 385.615C211.539 385.699 213.49 385.369 215.31 384.646C212.444 385.764 210.165 384.116 210.165 380.576V92.4568C210.237 90.2945 210.863 88.187 211.985 86.337L194.514 76.3044C193.408 78.1405 192.782 80.2254 192.694 82.367V370.544Z" fill="#263238"/>
<path d="M219.738 120.104L334.582 53.8174C336.645 52.6422 338.308 53.6024 338.308 55.9672V269.258C338.239 270.551 337.866 271.809 337.218 272.93C336.57 274.051 335.667 275.003 334.582 275.708L219.781 341.994C217.717 343.184 216.055 342.223 216.055 339.844V126.553C216.12 125.265 216.487 124.009 217.127 122.889C217.767 121.769 218.661 120.815 219.738 120.104Z" fill="white"/>
<path d="M277.139 57.5582C276.505 57.9744 275.978 58.5335 275.599 59.1907C275.221 59.8479 275.002 60.5847 274.96 61.3419C274.96 62.7751 275.935 63.3054 277.139 62.6031C277.775 62.1895 278.304 61.631 278.683 60.9732C279.062 60.3155 279.279 59.5774 279.317 58.8194C279.317 57.4292 278.343 56.8703 277.139 57.5582Z" fill="#37474F"/>
<path d="M277.138 319.049C274.632 320.688 272.548 322.894 271.054 325.488C269.56 328.083 268.698 330.993 268.539 333.983C268.539 339.472 272.394 341.708 277.138 338.956C279.643 337.316 281.726 335.11 283.22 332.515C284.714 329.921 285.576 327.011 285.737 324.022C285.766 318.533 281.896 316.297 277.138 319.049Z" fill="#37474F"/>
<path d="M256.514 79.7443C255.255 80.5804 254.209 81.7009 253.463 83.0154C252.716 84.3299 252.288 85.8016 252.215 87.3117C252.215 90.0921 254.164 91.2243 256.514 89.8341C257.787 89.0059 258.847 87.8889 259.606 86.5739C260.366 85.2589 260.804 83.7832 260.886 82.2668C260.886 79.4863 258.937 78.3541 256.514 79.7443Z" fill="#37474F"/>
<path d="M267.221 78.798C267.221 80.6612 268.654 81.3635 270.331 80.3745L298.995 63.7922C299.883 63.2377 300.627 62.4814 301.168 61.5848C301.708 60.6883 302.029 59.6768 302.105 58.6327C302.105 56.7838 300.672 56.0815 298.995 57.0704L270.331 73.6528C269.445 74.2059 268.701 74.9599 268.161 75.8538C267.621 76.7478 267.299 77.7564 267.221 78.798Z" fill="#37474F"/>
<path d="M202.382 129.333C203.399 129.996 204.245 130.889 204.853 131.94C205.461 132.99 205.812 134.17 205.879 135.382C205.879 137.617 204.316 138.52 202.382 137.402C201.368 136.738 200.525 135.844 199.92 134.793C199.315 133.743 198.965 132.565 198.899 131.354C198.899 129.133 200.461 128.23 202.382 129.333Z" fill="#37474F"/>
<path d="M202.382 156.249C203.399 156.912 204.245 157.804 204.853 158.855C205.461 159.906 205.812 161.085 205.879 162.297C205.879 164.519 204.316 165.422 202.382 164.318C201.368 163.653 200.525 162.759 199.92 161.709C199.315 160.658 198.965 159.48 198.899 158.27C198.899 156.034 200.461 155.131 202.382 156.249Z" fill="#37474F"/>
<path d="M201.293 129.878C202.31 130.541 203.157 131.433 203.764 132.484C204.372 133.535 204.723 134.714 204.79 135.926C204.79 138.148 203.228 139.051 201.293 137.947C200.276 137.285 199.429 136.392 198.822 135.341C198.214 134.29 197.863 133.111 197.796 131.899C197.81 129.663 199.372 128.803 201.293 129.878Z" fill="#455A64"/>
<path d="M201.293 156.779C202.312 157.443 203.16 158.339 203.767 159.392C204.375 160.445 204.725 161.628 204.79 162.842C204.79 165.063 203.228 165.966 201.293 164.848C200.273 164.189 199.425 163.296 198.817 162.245C198.209 161.194 197.859 160.013 197.796 158.8C197.81 156.579 199.372 155.676 201.293 156.779Z" fill="#455A64"/>
<path d="M361.554 62.7178C361.554 60.3387 359.892 59.3784 357.828 60.568L344.083 68.4937L243.027 126.854C241.942 127.559 241.038 128.511 240.391 129.632C239.743 130.753 239.37 132.011 239.301 133.304V346.538C239.301 348.917 240.963 349.877 243.027 348.687L344.126 290.312L357.828 282.401C358.913 281.696 359.817 280.744 360.464 279.623C361.112 278.502 361.485 277.244 361.554 275.952V62.7178Z" fill="white"/>
<path d="M362.988 62.7175C363.079 61.9987 362.955 61.2694 362.633 60.6206C362.311 59.9718 361.804 59.4324 361.177 59.0699C360.55 58.7074 359.83 58.5378 359.107 58.5824C358.384 58.6271 357.69 58.8839 357.112 59.3207L343.998 66.9025L242.312 125.664C241.002 126.491 239.914 127.623 239.14 128.964C238.366 130.305 237.93 131.814 237.869 133.361V346.537C237.811 347.253 237.949 347.97 238.267 348.614C238.585 349.258 239.071 349.803 239.675 350.192C240.188 350.49 240.772 350.644 241.366 350.636C242.206 350.61 243.025 350.368 243.745 349.934L345.503 291.172L358.588 283.619C359.89 282.785 360.973 281.65 361.746 280.311C362.519 278.972 362.96 277.467 363.031 275.923L362.988 62.7175ZM344.027 288.721L342.852 289.409L242.369 347.426C242.2 347.556 242.004 347.646 241.796 347.691C241.588 347.735 241.372 347.733 241.165 347.684C240.979 347.569 240.792 347.168 240.792 346.508V133.303C240.867 132.263 241.176 131.252 241.697 130.349C242.219 129.445 242.939 128.672 243.802 128.086L344.185 70.0412L358.517 61.7429C358.686 61.6131 358.881 61.5227 359.09 61.478C359.298 61.4334 359.513 61.4358 359.721 61.4849C359.907 61.5996 360.093 62.0009 360.093 62.6602V275.951C360.019 276.992 359.71 278.002 359.188 278.906C358.667 279.81 357.947 280.583 357.084 281.168L343.998 288.721H344.027Z" fill="#BA68C8"/>
<path d="M300.427 112.264C313.326 104.84 323.717 110.83 323.717 125.721C323.717 140.613 313.283 158.685 300.427 166.052C287.571 173.419 277.137 167.485 277.137 152.609C277.137 137.732 287.571 119.702 300.427 112.264Z" fill="#BA68C8"/>
<path d="M300.428 123.959C304.598 121.551 307.981 123.5 307.981 128.259C307.839 130.88 307.081 133.431 305.769 135.705C304.456 137.978 302.627 139.91 300.428 141.344C296.257 143.752 292.875 141.803 292.875 137.044C293.016 134.423 293.774 131.872 295.086 129.599C296.399 127.325 298.229 125.393 300.428 123.959Z" fill="#BA68C8"/>
<path d="M315.147 149.642C315.147 141.731 309.6 138.52 302.735 142.476L298.436 144.955C291.585 148.911 286.024 158.542 286.024 166.454V168.589C289.994 169.893 294.982 169.191 300.356 166.052C306.31 162.38 311.345 157.394 315.075 151.476L315.147 149.642Z" fill="#BA68C8"/>
<path opacity="0.7" d="M300.428 123.959C304.598 121.551 307.981 123.5 307.981 128.259C307.839 130.88 307.081 133.431 305.769 135.705C304.456 137.978 302.627 139.91 300.428 141.344C296.257 143.752 292.875 141.803 292.875 137.044C293.016 134.423 293.774 131.872 295.086 129.599C296.399 127.325 298.229 125.393 300.428 123.959Z" fill="white"/>
<path opacity="0.7" d="M315.147 149.642C315.147 141.731 309.6 138.52 302.735 142.476L298.436 144.955C291.585 148.911 286.024 158.542 286.024 166.454V168.589C289.994 169.893 294.982 169.191 300.356 166.052C306.31 162.38 311.345 157.394 315.075 151.476L315.147 149.642Z" fill="white"/>
<path d="M255.368 198.801L285.336 181.503C286.769 180.714 287.816 181.345 287.816 182.936V183.925C287.77 184.786 287.522 185.624 287.091 186.372C286.66 187.119 286.059 187.754 285.336 188.224L255.368 205.523C254.006 206.312 252.888 205.667 252.888 204.09V203.101C252.935 202.24 253.183 201.402 253.614 200.655C254.045 199.908 254.646 199.273 255.368 198.801Z" fill="#BA68C8"/>
<path opacity="0.1" d="M255.368 198.801L285.336 181.503C286.769 180.714 287.816 181.345 287.816 182.936V183.925C287.77 184.786 287.522 185.624 287.091 186.372C286.66 187.119 286.059 187.754 285.336 188.224L255.368 205.523C254.006 206.312 252.888 205.667 252.888 204.09V203.101C252.935 202.24 253.183 201.402 253.614 200.655C254.045 199.908 254.646 199.273 255.368 198.801Z" fill="black"/>
<path d="M254.135 219.683L344.8 167.342C345.474 166.941 346.033 167.256 346.033 168.059V178.636C346.008 179.065 345.883 179.483 345.669 179.856C345.455 180.229 345.158 180.547 344.8 180.786L254.135 233.127C253.447 233.528 252.888 233.198 252.888 232.41V221.833C252.913 221.402 253.038 220.983 253.255 220.609C253.472 220.236 253.773 219.919 254.135 219.683Z" fill="#BA68C8"/>
<path opacity="0.2" d="M254.135 219.683L344.8 167.342C345.474 166.941 346.033 167.256 346.033 168.059V178.636C346.008 179.065 345.883 179.483 345.669 179.856C345.455 180.229 345.158 180.547 344.8 180.786L254.135 233.127C253.447 233.528 252.888 233.198 252.888 232.41V221.833C252.913 221.402 253.038 220.983 253.255 220.609C253.472 220.236 253.773 219.919 254.135 219.683Z" fill="white"/>
<path d="M255.368 245.854L285.336 228.555C286.769 227.767 287.816 228.412 287.816 229.989V230.978C287.771 231.839 287.524 232.678 287.093 233.425C286.662 234.173 286.06 234.807 285.336 235.277L255.368 252.576C254.006 253.379 252.888 252.734 252.888 251.143V250.154C252.937 249.293 253.187 248.456 253.617 247.71C254.048 246.963 254.647 246.328 255.368 245.854Z" fill="#BA68C8"/>
<path opacity="0.1" d="M255.368 245.854L285.336 228.555C286.769 227.767 287.816 228.412 287.816 229.989V230.978C287.771 231.839 287.524 232.678 287.093 233.425C286.662 234.173 286.06 234.807 285.336 235.277L255.368 252.576C254.006 253.379 252.888 252.734 252.888 251.143V250.154C252.937 249.293 253.187 248.456 253.617 247.71C254.048 246.963 254.647 246.328 255.368 245.854Z" fill="black"/>
<path d="M254.135 266.736L344.8 214.395C345.474 213.994 346.033 214.323 346.033 215.112V225.689C346.008 226.118 345.883 226.536 345.669 226.909C345.455 227.282 345.158 227.6 344.8 227.839L254.135 280.18C253.447 280.581 252.888 280.266 252.888 279.463V268.886C252.913 268.455 253.038 268.036 253.255 267.662C253.472 267.289 253.773 266.971 254.135 266.736Z" fill="#BA68C8"/>
<path opacity="0.2" d="M254.135 266.736L344.8 214.395C345.474 213.994 346.033 214.323 346.033 215.112V225.689C346.008 226.118 345.883 226.536 345.669 226.909C345.455 227.282 345.158 227.6 344.8 227.839L254.135 280.18C253.447 280.581 252.888 280.266 252.888 279.463V268.886C252.913 268.455 253.038 268.036 253.255 267.662C253.472 267.289 253.773 266.971 254.135 266.736Z" fill="white"/>
<path d="M290.294 272.741L326.125 252.088C327.558 251.286 328.619 251.931 328.619 253.521V264.586C328.572 265.448 328.321 266.288 327.888 267.035C327.454 267.782 326.85 268.416 326.125 268.886L290.294 289.552C288.861 290.341 287.815 289.696 287.815 288.119V277.041C287.865 276.18 288.115 275.344 288.545 274.597C288.976 273.851 289.575 273.215 290.294 272.741Z" fill="#BA68C8"/>
<path opacity="0.1" d="M290.294 272.741L326.125 252.088C327.558 251.286 328.619 251.931 328.619 253.521V264.586C328.572 265.448 328.321 266.288 327.888 267.035C327.454 267.782 326.85 268.416 326.125 268.886L290.294 289.552C288.861 290.341 287.815 289.696 287.815 288.119V277.041C287.865 276.18 288.115 275.344 288.545 274.597C288.976 273.851 289.575 273.215 290.294 272.741Z" fill="black"/>
<path d="M375.142 226.047C375.142 226.047 357.542 201.768 356.51 198.816C355.693 196.637 356.51 193.398 356.768 191.893C357.026 190.388 357.255 187.035 357.513 186.16C357.943 184.526 355.836 184.856 354.647 186.347C353.457 187.837 353.056 190.818 352.44 191.306C351.823 191.793 347.137 184.956 344.686 181.803C342.235 178.65 340.702 176.73 339.197 177.905C338.122 178.751 338.924 180.585 340.702 183.28C341.74 184.73 342.696 186.238 343.568 187.794C343.84 188.382 342.378 188.425 341.59 189.643C340.974 190.589 341.59 192.122 340.73 192.853C340.201 193.256 339.838 193.84 339.712 194.492C339.585 195.145 339.702 195.822 340.042 196.393C341.638 198.899 343.695 201.078 346.105 202.814C348.742 204.634 349.802 205.279 351.365 207.759C352.927 210.238 366.944 235.563 367.89 237.082C368.836 238.602 370.656 241.697 373.422 241.783C376.188 241.869 398.833 222.378 399.994 221.403C403.72 218.293 404.91 217.849 405.54 220.643C405.758 221.637 405.921 222.642 406.028 223.653C406.472 227.208 408.894 239.906 408.894 239.906C408.894 239.906 420.36 245.452 429.776 242.772C439.192 240.092 442.374 236.094 442.374 236.094L437.659 228.412C438.934 225.244 444.825 212.402 446.731 203.416L417.207 198.644C416.605 198.515 415.63 198.271 414.34 197.941C412.721 197.511 408.607 196.093 405.497 198.816C395.35 207.659 375.17 226.047 375.17 226.047" fill="#FFA8A7"/>
<path d="M433.675 375.015L428.386 382.368C430.79 383.49 433.416 384.054 436.068 384.016C440.812 384.188 442.116 382.583 442.288 382.268C443.091 380.548 441.844 377.452 441.5 374.786L433.675 375.015Z" fill="#37474F"/>
<path d="M428.688 378.842C428.688 378.842 422.267 378.426 417.838 377.882C413.41 377.337 409.898 379.487 410.93 381.307C411.962 383.127 414.413 384.646 418.225 385.922C421.478 387.026 425.391 387.814 428.774 388.788C432.156 389.763 434.506 391.039 436.47 390.351C438.663 389.591 439.609 388.717 439.422 387.112C438.944 384.828 438.351 382.57 437.645 380.347L428.688 378.842Z" fill="#37474F"/>
<path d="M442.289 367.634C442.289 367.634 441.486 374.313 441.429 375.746C441.372 377.179 434.908 377.638 433.675 375.015L433.475 366.846L442.289 367.634Z" fill="#F28F8F"/>
<path d="M435.783 371.733L438.09 381.88C438.09 381.88 438.305 383.113 433.031 383.901C427.757 384.689 419.473 381.135 418.054 380.418C416.635 379.702 416.477 378.254 421.665 378.541C426.854 378.827 428.688 378.842 428.688 378.842L426.997 374.356L435.783 371.733Z" fill="#FFA8A7"/>
<path d="M446.644 203.33L450.299 202.312C450.299 202.312 457.938 226.491 458.784 228.827C459.629 231.163 460.589 233.628 458.941 236.509C456.978 239.934 446.644 253.707 446.644 253.707L440.08 247.287L447.533 233.642L440.94 220.313L446.644 203.33Z" fill="#F28F8F"/>
<path d="M409.108 171.929C408.251 170.32 407.816 168.521 407.844 166.699C407.872 164.877 408.361 163.091 409.266 161.509C412.906 154.759 421.018 151.477 430.678 152.724C435.15 153.311 440.424 157.023 443.305 162.57C446.486 168.718 446.787 181.101 447.604 185.788L409.108 171.929Z" fill="#37474F"/>
<path d="M408.851 174.58C408.851 174.58 406.557 178.951 406.959 179.352C407.553 179.7 408.203 179.942 408.879 180.069L408.851 174.58Z" fill="#FFA8A7"/>
<path d="M415.816 160.764C413.323 162.383 409.023 165.364 408.837 175.182C408.636 185.214 410.069 188.525 411.56 189.686C412.563 190.474 418.454 190.073 420.976 189.485C423.499 188.898 430.765 185.3 433.388 179.84C436.469 173.419 435.839 164.074 431.267 161.208C428.94 159.832 426.301 159.069 423.599 158.991C420.897 158.914 418.219 159.524 415.816 160.764Z" fill="#FFA8A7"/>
<path d="M442.288 236.036C446.703 242.916 450.888 248.935 451.805 256.703C453.697 273.028 447.505 291.688 446.172 303.77C448.679 307.207 450.124 311.302 450.329 315.551C450.329 320.553 442.288 367.634 442.288 367.634C442.288 367.634 436.441 369.411 433.474 366.846L427.956 280.237L430.822 269.688L442.288 236.036Z" fill="#BA68C8"/>
<path opacity="0.2" d="M442.288 236.036C446.703 242.916 450.888 248.935 451.805 256.703C453.697 273.028 447.505 291.688 446.172 303.77C448.679 307.207 450.124 311.302 450.329 315.551C450.329 320.553 442.288 367.634 442.288 367.634C442.288 367.634 436.441 369.411 433.474 366.846L427.956 280.237L430.822 269.688L442.288 236.036Z" fill="black"/>
<path d="M427.956 280.236L430.822 269.688C436.311 268.243 441.604 266.14 446.588 263.425C446.588 263.425 443.607 268.857 435.036 271.838L430.608 285.382L430.235 316.411L427.956 280.236Z" fill="#BA68C8"/>
<path opacity="0.3" d="M427.956 280.236L430.822 269.688C436.311 268.243 441.604 266.14 446.588 263.425C446.588 263.425 443.607 268.857 435.036 271.838L430.608 285.382L430.235 316.411L427.956 280.236Z" fill="black"/>
<path d="M442.288 236.036C444.653 239.906 450.3 246.499 449.096 252.848C447.663 260.53 443.507 265.933 430.866 269.688L418.999 312.685C418.999 312.685 425.176 318.418 427.068 323.964C428.959 329.511 435.782 371.762 435.782 371.762C435.782 371.762 433.66 375.216 426.996 374.385C426.996 374.385 403.764 321.356 402.13 317.902C400.147 314.404 399.452 310.321 400.166 306.364C400.897 300.803 408.765 239.935 408.765 239.935L442.288 236.036Z" fill="#BA68C8"/>
<path opacity="0.2" d="M442.288 236.036C444.653 239.906 450.3 246.499 449.096 252.848C447.663 260.53 443.507 265.933 430.866 269.688L418.999 312.685C418.999 312.685 425.176 318.418 427.068 323.964C428.959 329.511 435.782 371.762 435.782 371.762C435.782 371.762 433.66 375.216 426.996 374.385C426.996 374.385 403.764 321.356 402.13 317.902C400.147 314.404 399.452 310.321 400.166 306.364C400.897 300.803 408.765 239.935 408.765 239.935L442.288 236.036Z" fill="black"/>
<path d="M446.644 203.331L417.12 198.558C416.518 198.429 415.543 198.185 414.254 197.856C414.254 197.856 412.992 216.373 405.411 220.615C405.597 221.504 405.755 222.493 405.898 223.625C406.342 227.179 408.764 239.878 408.764 239.878C408.764 239.878 420.23 245.424 429.646 242.744C439.063 240.064 442.244 236.065 442.244 236.065L437.529 228.383C438.848 225.187 444.781 212.346 446.644 203.331Z" fill="#BA68C8"/>
<path opacity="0.7" d="M446.644 203.331L417.12 198.558C416.518 198.429 415.543 198.185 414.254 197.856C414.254 197.856 412.992 216.373 405.411 220.615C405.597 221.504 405.755 222.493 405.898 223.625C406.342 227.179 408.764 239.878 408.764 239.878C408.764 239.878 420.23 245.424 429.646 242.744C439.063 240.064 442.244 236.065 442.244 236.065L437.529 228.383C438.848 225.187 444.781 212.346 446.644 203.331Z" fill="white"/>
<path d="M438.862 225.33C434.941 227.685 430.833 229.712 426.58 231.393C430.44 231.316 434.22 230.271 437.572 228.354L438.862 225.33Z" fill="#BA68C8"/>
<path d="M415.085 161.252C415.085 161.252 413.652 170.567 417.034 176.042C417.034 176.042 418.296 172.33 421.434 173.033C424.573 173.735 424.745 177.877 422.538 180.199C421.977 180.85 421.244 181.33 420.422 181.583C419.601 181.837 418.725 181.854 417.894 181.632C417.894 181.632 417.393 188.368 417.12 194.015C416.848 199.662 415.358 211.973 421.707 216.946C428.056 221.92 443.993 223.668 451.46 213.234C455.617 207.43 450.099 197.168 447.533 185.659C445.168 175.082 443.836 159.403 432.613 156.88C421.391 154.358 415.085 161.252 415.085 161.252Z" fill="#37474F"/>
<path d="M456.263 33.9675L453.898 35.4007C454.097 34.5593 454.207 33.6995 454.228 32.8353C454.228 28.034 450.86 26.0992 446.703 28.5356C445.438 29.2986 444.31 30.2674 443.364 31.402C443.364 24.9526 438.835 22.3298 433.245 25.5545C430.3 27.4754 427.849 30.0636 426.091 33.109C424.333 36.1545 423.317 39.5715 423.127 43.0828C423.127 43.4124 423.127 43.7277 423.127 44.043C421.687 43.8618 420.23 44.197 419.014 44.9889C416.824 46.416 415.001 48.3395 413.693 50.6031C412.386 52.8667 411.631 55.4067 411.489 58.0169C411.489 58.6236 411.551 59.2289 411.676 59.8227L410.414 60.5537C406.989 62.5315 404.208 66.3868 404.208 69.153C404.208 71.9191 406.989 72.5783 410.414 70.5862L456.277 44.1433C459.703 42.1655 462.483 38.3101 462.483 35.544C462.483 32.7779 459.688 31.9753 456.263 33.9675Z" fill="#EBEBEB"/>
</svg>
