<svg width="62" height="60" viewBox="0 0 62 60" fill="none" xmlns="http://www.w3.org/2000/svg">
<path d="M0 24.3C1.29012 17.3 4.65236 11.5 10.0867 6.9C15.5211 2.3 21.9091 0 29.2509 0C32.9228 0 36.3842 0.6 39.6353 1.8C42.8864 3 45.8011 4.7 48.3793 6.9C47.6847 8.2 47.1259 9.313 46.7032 10.239C46.2804 11.165 45.9956 12.027 45.8487 12.825C43.6655 10.725 41.1597 9.062 38.3313 7.836C35.503 6.61 32.4762 5.998 29.2509 6C24.2393 6 19.7487 7.413 15.7791 10.239C11.8095 13.065 8.93157 16.677 7.14526 21.075C5.80552 21.025 4.50251 21.275 3.23621 21.825C1.96991 22.375 0.891172 23.2 0 24.3ZM29.2509 60C21.9072 60 15.5191 57.7 10.0867 53.1C4.65434 48.5 1.2921 42.7 0 35.7C0.843537 36.8 1.89846 37.638 3.16475 38.214C4.43105 38.79 5.75789 39.052 7.14526 39C8.93157 43.4 11.8095 47 15.7791 49.8C19.7487 52.6 24.2393 54 29.2509 54C35.8503 54 41.4703 51.663 46.1107 46.989C50.7512 42.315 53.0704 36.652 53.0684 30C53.0684 29.15 53.0307 28.3 52.9553 27.45C52.8799 26.6 52.7439 25.75 52.5474 24.9C53.0932 25.1 53.652 25.25 54.2236 25.35C54.7952 25.45 55.4025 25.5 56.0456 25.5C56.4922 25.5 56.9388 25.475 57.3854 25.425C57.8319 25.375 58.2537 25.3 58.6507 25.2C58.7499 26 58.8372 26.788 58.9127 27.564C58.9881 28.34 59.0248 29.152 59.0228 30C59.0228 34.15 58.2408 38.05 56.6768 41.7C55.1128 45.35 52.992 48.525 50.3145 51.225C47.6351 53.925 44.4842 56.063 40.8619 57.639C37.2397 59.215 33.3693 60.002 29.2509 60ZM18.533 28.8L24.7851 22.5L18.4586 16.125L15.3325 19.275L18.533 22.425L15.3325 25.65L18.533 28.8ZM56.0456 21C54.4082 21 53.0059 20.413 51.8388 19.239C50.6718 18.065 50.0893 16.652 50.0912 15C50.0912 13.65 50.4634 12.212 51.2077 10.686C51.952 9.16 53.5646 6.598 56.0456 3C58.5266 6.6 60.1393 9.163 60.8836 10.689C61.6278 12.215 62 13.652 62 15C62 16.65 61.4165 18.063 60.2494 19.239C59.0824 20.415 57.6811 21.002 56.0456 21ZM40.0432 28.875L43.2437 25.65L40.0432 22.425L43.1693 19.275L40.0432 16.125L33.7167 22.5L40.0432 28.875ZM29.2509 34.5C27.9608 34.5 26.7074 34.65 25.4907 34.95C24.274 35.25 23.1209 35.675 22.0312 36.225L11.3878 30C11.3878 29.2 11.1893 28.45 10.7923 27.75C10.3954 27.05 9.84954 26.5 9.15486 26.1C8.06322 25.5 6.93487 25.362 5.7698 25.686C4.60472 26.01 3.69866 26.698 3.05162 27.75C2.45618 28.85 2.31923 29.987 2.64077 31.161C2.96231 32.335 3.64507 33.248 4.68908 33.9C5.38375 34.3 6.12805 34.5 6.92197 34.5C7.71589 34.5 8.46018 34.3 9.15486 33.9L18.012 39.075C17.1685 39.925 16.4113 40.838 15.7404 41.814C15.0695 42.79 14.5118 43.852 14.0672 45H18.9796C20.0216 43.2 21.4358 41.75 23.2221 40.65C25.0084 39.55 27.018 39 29.2509 39C31.4838 39 33.4934 39.55 35.2797 40.65C37.066 41.75 38.4802 43.2 39.5222 45H44.4346C43.2437 41.9 41.2956 39.375 38.5903 37.425C35.8851 35.475 32.7719 34.5 29.2509 34.5Z" fill="#9254DE"/>
</svg>
